<?xml version="1.0" standalone="no"?>
<!DOCTYPE svg PUBLIC "-//W3C//DTD SVG 20010904//EN"
 "http://www.w3.org/TR/2001/REC-SVG-20010904/DTD/svg10.dtd">
<svg version="1.0" xmlns="http://www.w3.org/2000/svg"
 width="306.000000pt" height="306.000000pt" viewBox="0 0 306.000000 306.000000"
 preserveAspectRatio="xMidYMid meet">
<metadata>
Created by potrace 1.14, written by Peter Selinger 2001-2017
</metadata>
<g transform="translate(0.000000,306.000000) scale(0.100000,-0.100000)"
fill="#000000" stroke="none">
<path d="M0 2023 l0 -708 1091 0 c1133 0 1199 -2 1253 -41 75 -54 106 -228 60
-341 -31 -76 -75 -108 -166 -119 -29 -4 -545 -7 -1145 -8 l-1093 0 0 -238 0
-239 1218 4 c669 2 1232 7 1250 10 282 56 464 192 545 407 47 124 57 339 23
469 -40 150 -130 275 -268 376 l-57 41 24 27 c77 83 148 236 164 355 17 131
-6 287 -60 399 -57 120 -194 231 -333 270 -149 41 -165 42 -1358 43 l-1148 0
0 -707z m2100 253 c124 -25 178 -112 168 -269 -8 -120 -52 -181 -152 -208 -38
-10 -190 -12 -1131 -10 l-350 1 1 248 c1 136 2 247 3 247 795 0 1434 -4 1461
-9z"/>
</g>
</svg>
