<svg width="187" height="17" viewBox="0 0 187 17" fill="none" xmlns="http://www.w3.org/2000/svg">
<path d="M16.8115 8.19449C17.5766 7.3206 18.0138 6.24505 18.0138 5.14709C18.0138 2.83912 16.9426 1.02412 13.4667 1.02412H0V16.7093H13.9913C17.4673 16.7093 18.9757 14.7823 18.9757 12.1382C18.9757 10.3232 18.1232 9.02357 16.8115 8.19449ZM3.93506 3.93709H12.0457C13.1169 3.93709 14.0788 3.93709 14.0788 5.55042C14.0788 7.18616 13.1169 7.18616 12.0675 7.18616H12.0457H3.93506V3.93709ZM13.0294 13.5947H3.93506V10.2784H13.0294C14.0788 10.2784 15.0407 10.2784 15.0407 11.9365C15.0407 13.5947 14.0788 13.5947 13.0294 13.5947Z" fill="black"/>
<path d="M43.0175 4.22838V1.02412H26.8401V16.7093H43.0175V13.505H30.7751V10.3232H43.0175V7.41023H30.7751V4.22838H43.0175Z" fill="black"/>
<path d="M69.4656 1.02412H50.6648V4.40764H58.0977V16.7093H62.0327V4.40764H69.4656V1.02412Z" fill="black"/>
<path d="M86.9282 10.9282H92.634C92.5466 12.1158 91.0163 13.8188 87.2124 13.8188C82.1186 13.8188 81.3972 10.861 81.3972 8.95635C81.3972 7.07412 82.0968 4.18357 87.2124 4.18357C91.366 4.18357 92.4154 5.95375 92.634 7.14135H96.6347C96.3942 3.24246 93.3336 0.800049 87.2124 0.800049C80.9163 0.800049 77.4622 3.6682 77.4622 8.86672C77.4622 14.0652 80.9163 16.9334 86.5565 16.9334C89.8139 16.9334 92.1093 15.8578 93.5522 14.2445L93.7271 16.7093H96.6347V8.30653H86.9282V10.9282Z" fill="#EA227A"/>
<path d="M123.866 8.84431V1.02412H119.931V8.84431C119.931 11.0178 119.34 13.5499 114.247 13.5499C109.153 13.5499 108.563 11.0402 108.563 8.84431V1.02412H104.628V8.84431C104.628 14.3117 107.513 16.9334 114.247 16.9334C120.958 16.9334 123.866 14.2893 123.866 8.84431Z" fill="#EA227A"/>
<path d="M136 1.02412H132.065V16.7093H136V1.02412Z" fill="#EA227A"/>
<path d="M155.408 1.02412H144.303V16.7093H155.408C159.365 16.7093 162.841 14.1997 162.841 8.86672C162.841 3.53375 159.365 1.02412 155.408 1.02412ZM153.922 13.3258H148.238V4.40764H153.922C156.895 4.40764 158.906 5.05746 158.906 8.86672C158.906 12.676 156.895 13.3258 153.922 13.3258Z" fill="#EA227A"/>
<path d="M187 4.22838V1.02412H170.823V16.7093H187V13.505H174.758V10.3232H187V7.41023H174.758V4.22838H187Z" fill="#EA227A"/>
</svg>
