<svg width="508" height="264" fill="none" xmlns="http://www.w3.org/2000/svg"><path opacity=".05" d="M140.225 213.86v-2.5h-22.828v-70.854H84.605l-.708.623-80.548 70.854-.849.746v28.446h80.548v18.611H117.397v-18.611h22.828V213.86Zm365.275 0v-2.5h-22.827v-70.854H449.88l-.708.623-80.548 70.854-.849.746v28.446h80.548v18.611h34.35v-18.611H505.5V213.86Zm-422.452-2.5h-39.6l39.6-33.571v33.571Zm169.97 50.059c22.928 0 40.343-5.342 52.039-15.91 11.741-10.608 17.312-26.111 17.312-45.526 0-19.337-5.573-34.761-17.318-45.307-11.697-10.504-29.11-15.803-52.033-15.803-22.998 0-40.415 5.255-52.094 15.741-11.729 10.53-17.258 25.958-17.258 45.369 0 19.489 5.527 34.996 17.252 45.588 11.679 10.55 29.097 15.848 52.1 15.848Zm0-29.652c-12.502 0-21.156-3.09-26.686-8.369-5.509-5.261-8.316-13.081-8.316-23.415 0-10.248 2.804-17.982 8.307-23.182 5.528-5.223 14.185-8.276 26.695-8.276 12.502 0 21.161 3.09 26.692 8.334 5.509 5.224 8.31 12.963 8.31 23.124 0 10.248-2.805 18.072-8.32 23.357-5.532 5.301-14.188 8.427-26.682 8.427Zm195.305-20.407h-39.6l39.6-33.571v33.571Z" stroke="#000" stroke-width="5"/><path opacity=".24" d="M140.225 188.736v-2.5h-22.828v-70.854H84.605l-.708.622-80.548 70.855-.849.746v28.446h80.548v18.611H117.397v-18.611h22.828v-27.315Zm365.275 0v-2.5h-22.827v-70.854H449.88l-.708.622-80.548 70.855-.849.746v28.446h80.548v18.611h34.35v-18.611H505.5v-27.315Zm-422.452-2.5h-39.6l39.6-33.571v33.571Zm169.97 50.059c22.928 0 40.343-5.342 52.039-15.91 11.741-10.608 17.312-26.111 17.312-45.526 0-19.337-5.573-34.761-17.318-45.307-11.697-10.504-29.11-15.803-52.033-15.803-22.998 0-40.415 5.255-52.094 15.741-11.729 10.53-17.258 25.958-17.258 45.369 0 19.489 5.527 34.996 17.252 45.588 11.679 10.55 29.097 15.848 52.1 15.848Zm0-29.652c-12.502 0-21.156-3.09-26.686-8.369-5.509-5.261-8.316-13.081-8.316-23.415 0-10.248 2.804-17.982 8.307-23.182 5.528-5.223 14.185-8.276 26.695-8.276 12.502 0 21.161 3.09 26.692 8.334 5.509 5.224 8.31 12.963 8.31 23.124 0 10.248-2.805 18.072-8.32 23.357-5.532 5.301-14.188 8.427-26.682 8.427Zm195.305-20.407h-39.6l39.6-33.571v33.571Z" stroke="#000" stroke-width="5"/><path d="M140.225 163.611v-2.5h-22.828V90.257H84.605l-.708.622-80.548 70.855-.849.746v28.446h80.548v18.611H117.397v-18.611h22.828v-27.315Zm365.275 0v-2.5h-22.827V90.257H449.88l-.708.622-80.548 70.855-.849.746v28.446h80.548v18.611h34.35v-18.611H505.5v-27.315Zm-422.452-2.5h-39.6l39.6-33.571v33.571Zm169.97 50.059c22.928 0 40.343-5.342 52.039-15.91 11.741-10.608 17.312-26.111 17.312-45.526 0-19.337-5.573-34.761-17.318-45.307-11.697-10.504-29.11-15.803-52.033-15.803-22.998 0-40.415 5.255-52.094 15.741-11.729 10.53-17.258 25.958-17.258 45.369 0 19.489 5.527 34.996 17.252 45.588 11.679 10.55 29.097 15.848 52.1 15.848Zm0-29.652c-12.502 0-21.156-3.09-26.686-8.369-5.509-5.261-8.316-13.081-8.316-23.415 0-10.248 2.804-17.982 8.307-23.182 5.528-5.223 14.185-8.276 26.695-8.276 12.502 0 21.161 3.09 26.692 8.334 5.509 5.224 8.31 12.963 8.31 23.124 0 10.248-2.805 18.072-8.32 23.357-5.532 5.301-14.188 8.427-26.682 8.427Zm195.305-20.407h-39.6l39.6-33.571v33.571Z" stroke="#000" stroke-opacity=".5" stroke-width="5"/><path d="M137.725 138.487h-22.828V67.633h-29.35L5 138.487v24.815h80.548v18.611h29.349v-18.611h22.828v-24.815Zm-101.093 0 48.916-41.468v41.468H36.632ZM253.018 183.546c45.165 0 66.851-21.06 66.851-58.936 0-37.713-21.686-58.61-66.851-58.61-45.329 0-66.852 20.734-66.852 58.61 0 38.039 21.523 58.936 66.852 58.936Zm0-24.652c-25.762 0-37.502-12.734-37.502-34.284 0-21.387 11.74-33.958 37.502-33.958s37.502 12.734 37.502 33.958c0 21.387-11.74 34.284-37.502 34.284ZM503 138.487h-22.827V67.633h-29.35l-80.548 70.854v24.815h80.548v18.611h29.35v-18.611H503v-24.815Zm-101.092 0 48.915-41.468v41.468h-48.915Z" fill="#000"/><g opacity=".25" clip-path="url(#a)"><path d="M390.294 3.35c0 1.852 1.501 3.352 3.353 3.352a3.352 3.352 0 1 0-3.353-3.351ZM390.294 39.373c0 1.851 1.501 3.351 3.353 3.351a3.352 3.352 0 1 0 0-6.701 3.352 3.352 0 0 0-3.353 3.35ZM393.647 78.468c-1.956 0-3.353-1.397-3.353-3.351 0-1.955 1.397-3.351 3.353-3.351 1.956 0 3.353 1.396 3.353 3.35 0 1.955-1.397 3.352-3.353 3.352ZM393.647 114.491c-1.956 0-3.353-1.396-3.353-3.351s1.397-3.351 3.353-3.351c1.956 0 3.353 1.396 3.353 3.351 0 1.675-1.397 3.351-3.353 3.351Z" fill="#EA227A"/><path d="M393.647 150.234c-1.956 0-3.353-1.396-3.353-3.351s1.397-3.351 3.353-3.351c1.956 0 3.353 1.676 3.353 3.351 0 1.955-1.397 3.351-3.353 3.351Z" fill="#000"/><path d="M390.294 182.906a3.352 3.352 0 0 0 6.706 0 3.352 3.352 0 0 0-3.353-3.351 3.352 3.352 0 0 0-3.353 3.351ZM393.647 222c-1.956 0-3.353-1.397-3.353-3.351 0-1.955 1.397-3.351 3.353-3.351 1.956 0 3.353 1.675 3.353 3.351 0 1.954-1.397 3.351-3.353 3.351Z" fill="#EA227A"/><path d="M350.618 3.35c0 1.852 1.501 3.352 3.353 3.352a3.352 3.352 0 1 0-3.353-3.351Z" fill="#000"/><path d="M350.618 39.373c0 1.851 1.501 3.351 3.353 3.351a3.352 3.352 0 1 0 0-6.701 3.352 3.352 0 0 0-3.353 3.35ZM353.971 78.468c-1.956 0-3.353-1.397-3.353-3.351 0-1.955 1.397-3.351 3.353-3.351 1.956 0 3.353 1.396 3.353 3.35 0 1.955-1.677 3.352-3.353 3.352ZM353.971 114.491c-1.956 0-3.353-1.396-3.353-3.351s1.397-3.351 3.353-3.351c1.956 0 3.353 1.396 3.353 3.351 0 1.675-1.677 3.351-3.353 3.351ZM353.971 150.234c-1.956 0-3.353-1.396-3.353-3.351s1.397-3.351 3.353-3.351c1.956 0 3.353 1.396 3.353 3.351s-1.677 3.351-3.353 3.351ZM350.618 182.906a3.352 3.352 0 0 0 6.706 0 3.352 3.352 0 0 0-3.353-3.351 3.352 3.352 0 0 0-3.353 3.351ZM353.971 222c-1.956 0-3.353-1.397-3.353-3.351 0-1.955 1.397-3.351 3.353-3.351 1.956 0 3.353 1.396 3.353 3.351 0 1.954-1.677 3.351-3.353 3.351ZM314.015 6.702c-1.956 0-3.353-1.396-3.353-3.351S312.059 0 314.015 0c1.956 0 3.353 1.396 3.353 3.35.279 1.956-1.397 3.352-3.353 3.352ZM314.015 42.724c-1.956 0-3.353-1.396-3.353-3.35 0-1.955 1.397-3.352 3.353-3.352 1.956 0 3.353 1.397 3.353 3.351.279 1.676-1.397 3.351-3.353 3.351Z" fill="#EA227A"/><path d="M314.015 78.468c-1.956 0-3.353-1.397-3.353-3.351 0-1.955 1.397-3.351 3.353-3.351 1.956 0 3.353 1.396 3.353 3.35.279 1.955-1.397 3.352-3.353 3.352Z" fill="#000"/><path d="M314.015 114.491c-1.956 0-3.353-1.396-3.353-3.351s1.397-3.351 3.353-3.351c1.956 0 3.353 1.396 3.353 3.351.279 1.675-1.397 3.351-3.353 3.351ZM314.015 150.234c-1.956 0-3.353-1.396-3.353-3.351s1.397-3.351 3.353-3.351c1.956 0 3.353 1.396 3.353 3.351.279 1.955-1.397 3.351-3.353 3.351ZM314.015 186.257c-1.956 0-3.353-1.397-3.353-3.351 0-1.955 1.397-3.351 3.353-3.351 1.956 0 3.353 1.396 3.353 3.351 0 1.954-1.397 3.351-3.353 3.351ZM314.015 222c-1.956 0-3.353-1.397-3.353-3.351 0-1.955 1.397-3.351 3.353-3.351 1.956 0 3.353 1.396 3.353 3.351.279 1.954-1.397 3.351-3.353 3.351ZM270.986 3.35a3.352 3.352 0 1 0 6.706-.002 3.352 3.352 0 0 0-6.706.003ZM270.986 39.373a3.352 3.352 0 1 0 6.706-.002 3.352 3.352 0 0 0-6.706.002ZM274.338 78.468c-1.955 0-3.352-1.397-3.352-3.351 0-1.955 1.397-3.351 3.352-3.351 1.956 0 3.353 1.396 3.353 3.35 0 1.955-1.397 3.352-3.353 3.352ZM274.338 114.491c-1.955 0-3.352-1.396-3.352-3.351s1.397-3.351 3.352-3.351c1.956 0 3.353 1.396 3.353 3.351 0 1.675-1.397 3.351-3.353 3.351Z" fill="#EA227A"/><path d="M274.338 150.234c-1.955 0-3.352-1.396-3.352-3.351s1.397-3.351 3.352-3.351c1.956 0 3.353 1.396 3.353 3.351s-1.397 3.351-3.353 3.351Z" fill="#000"/><path d="M270.986 182.906a3.352 3.352 0 1 0 6.704-.002 3.352 3.352 0 0 0-6.704.002ZM274.338 222c-1.955 0-3.352-1.397-3.352-3.351 0-1.955 1.397-3.351 3.352-3.351 1.956 0 3.353 1.396 3.353 3.351 0 1.954-1.397 3.351-3.353 3.351ZM234.662 6.702c-1.956 0-3.353-1.396-3.353-3.351S232.706 0 234.662 0c1.956 0 3.353 1.396 3.353 3.35 0 1.956-1.397 3.352-3.353 3.352ZM234.662 42.724c-1.956 0-3.353-1.396-3.353-3.35 0-1.955 1.397-3.352 3.353-3.352 1.956 0 3.353 1.397 3.353 3.351 0 1.676-1.397 3.351-3.353 3.351ZM234.662 78.468c-1.956 0-3.353-1.397-3.353-3.351 0-1.955 1.397-3.351 3.353-3.351 1.956 0 3.353 1.396 3.353 3.35 0 1.955-1.397 3.352-3.353 3.352ZM234.662 114.491c-1.956 0-3.353-1.396-3.353-3.351s1.397-3.351 3.353-3.351c1.956 0 3.353 1.396 3.353 3.351 0 1.675-1.397 3.351-3.353 3.351ZM235.779 150.234c-1.397 0-2.235-1.396-2.235-3.351s1.118-3.351 2.235-3.351c1.397 0 2.236 1.396 2.236 3.351s-1.118 3.351-2.236 3.351ZM234.662 186.257c-1.956 0-3.353-1.397-3.353-3.351 0-1.955 1.397-3.351 3.353-3.351 1.956 0 3.353 1.396 3.353 3.351 0 1.954-1.397 3.351-3.353 3.351ZM234.662 222c-1.956 0-3.353-1.397-3.353-3.351 0-1.955 1.397-3.351 3.353-3.351 1.956 0 3.353 1.396 3.353 3.351 0 1.954-1.397 3.351-3.353 3.351ZM191.633 3.35a3.352 3.352 0 1 0 6.706-.002 3.352 3.352 0 0 0-6.706.003ZM191.633 39.373a3.352 3.352 0 1 0 6.706-.002 3.352 3.352 0 0 0-6.706.002ZM194.985 78.468c-1.955 0-3.352-1.397-3.352-3.351 0-1.955 1.397-3.351 3.352-3.351 1.956 0 3.353 1.396 3.353 3.35 0 1.955-1.397 3.352-3.353 3.352Z" fill="#EA227A"/><path d="M194.985 114.491c-1.955 0-3.352-1.396-3.352-3.351s1.397-3.351 3.352-3.351c1.956 0 3.353 1.396 3.353 3.351 0 1.675-1.397 3.351-3.353 3.351Z" fill="#000"/><path d="M194.985 150.234c-1.955 0-3.352-1.396-3.352-3.351s1.397-3.351 3.352-3.351c1.956 0 3.353 1.396 3.353 3.351s-1.397 3.351-3.353 3.351ZM191.633 182.906a3.352 3.352 0 1 0 6.704-.002 3.352 3.352 0 0 0-6.704.002ZM194.985 222c-1.955 0-3.352-1.397-3.352-3.351 0-1.955 1.397-3.351 3.352-3.351 1.956 0 3.353 1.396 3.353 3.351 0 1.954-1.397 3.351-3.353 3.351ZM151.956 3.35a3.352 3.352 0 0 0 6.706 0 3.352 3.352 0 0 0-6.706 0ZM151.956 39.373a3.352 3.352 0 0 0 6.706 0 3.352 3.352 0 0 0-6.706 0ZM155.309 78.468c-1.956 0-3.353-1.397-3.353-3.351 0-1.955 1.397-3.351 3.353-3.351 1.956 0 3.353 1.396 3.353 3.35 0 1.955-1.677 3.352-3.353 3.352ZM155.309 114.491c-1.956 0-3.353-1.396-3.353-3.351s1.397-3.351 3.353-3.351c1.956 0 3.353 1.396 3.353 3.351 0 1.675-1.677 3.351-3.353 3.351ZM155.309 150.234c-1.956 0-3.353-1.396-3.353-3.351s1.397-3.351 3.353-3.351c1.956 0 3.353 1.396 3.353 3.351s-1.677 3.351-3.353 3.351Z" fill="#EA227A"/><path d="M151.956 182.906a3.352 3.352 0 0 0 6.706 0 3.352 3.352 0 0 0-6.706 0Z" fill="#000"/><path d="M155.309 222c-1.956 0-3.353-1.397-3.353-3.351 0-1.955 1.397-3.351 3.353-3.351 1.956 0 3.353 1.396 3.353 3.351 0 1.954-1.677 3.351-3.353 3.351ZM115.353 6.702c-1.956 0-3.353-1.396-3.353-3.351S113.397 0 115.353 0c1.956 0 3.353 1.396 3.353 3.35.279 1.956-1.397 3.352-3.353 3.352Z" fill="#EA227A"/><path d="M115.353 42.724c-1.956 0-3.353-1.396-3.353-3.35 0-1.955 1.397-3.352 3.353-3.352 1.956 0 3.353 1.397 3.353 3.351.279 1.676-1.397 3.351-3.353 3.351Z" fill="#000"/><path d="M115.353 78.468c-1.956 0-3.353-1.397-3.353-3.351 0-1.955 1.397-3.351 3.353-3.351 1.956 0 3.353 1.396 3.353 3.35.279 1.955-1.397 3.352-3.353 3.352ZM115.353 114.491c-1.956 0-3.353-1.396-3.353-3.351s1.397-3.351 3.353-3.351c1.956 0 3.353 1.396 3.353 3.351.279 1.675-1.397 3.351-3.353 3.351ZM115.353 150.234c-1.956 0-3.353-1.396-3.353-3.351s1.397-3.351 3.353-3.351c1.956 0 3.353 1.396 3.353 3.351.279 1.955-1.397 3.351-3.353 3.351ZM115.353 186.257c-1.956 0-3.353-1.397-3.353-3.351 0-1.955 1.397-3.351 3.353-3.351 1.956 0 3.353 1.396 3.353 3.351 0 1.954-1.397 3.351-3.353 3.351ZM115.353 222c-1.956 0-3.353-1.397-3.353-3.351 0-1.955 1.397-3.351 3.353-3.351 1.956 0 3.353 1.396 3.353 3.351.279 1.954-1.397 3.351-3.353 3.351Z" fill="#EA227A"/></g><defs><clipPath id="a"><path fill="#fff" transform="rotate(90 198.5 198.5)" d="M0 0h222v285H0z"/></clipPath></defs></svg>