<svg width="111" height="90" viewBox="0 0 111 90" fill="none" xmlns="http://www.w3.org/2000/svg">
<g clip-path="url(#clip0_208_187)">
<path d="M108.392 1.6291C108.392 2.36865 108.976 2.96816 109.696 2.96816C110.416 2.96816 111 2.36865 111 1.6291C111 0.889558 110.416 0.290039 109.696 0.290039C108.976 0.290039 108.392 0.889558 108.392 1.6291Z" fill="white"/>
<path d="M108.392 16.0241C108.392 16.7637 108.976 17.3632 109.696 17.3632C110.416 17.3632 111 16.7637 111 16.0241C111 15.2846 110.416 14.6851 109.696 14.6851C108.976 14.6851 108.392 15.2846 108.392 16.0241Z" fill="white"/>
<path d="M109.696 31.6464C108.935 31.6464 108.392 31.0884 108.392 30.3073C108.392 29.5262 108.935 28.9683 109.696 28.9683C110.457 28.9683 111 29.5262 111 30.3073C111 31.0884 110.457 31.6464 109.696 31.6464Z" fill="white"/>
<path d="M109.696 46.0414C108.935 46.0414 108.392 45.4835 108.392 44.7023C108.392 43.9212 108.935 43.3633 109.696 43.3633C110.457 43.3633 111 43.9212 111 44.7023C111 45.3719 110.457 46.0414 109.696 46.0414Z" fill="white"/>
<path d="M109.696 60.3246C108.935 60.3246 108.392 59.7667 108.392 58.9855C108.392 58.2044 108.935 57.6465 109.696 57.6465C110.457 57.6465 111 58.316 111 58.9855C111 59.7667 110.457 60.3246 109.696 60.3246Z" fill="#EA227A"/>
<path d="M108.392 73.3806C108.392 74.1201 108.976 74.7196 109.696 74.7196C110.416 74.7196 111 74.1201 111 73.3806C111 72.641 110.416 72.0415 109.696 72.0415C108.976 72.0415 108.392 72.641 108.392 73.3806Z" fill="white"/>
<path d="M109.696 89.0028C108.935 89.0028 108.392 88.4449 108.392 87.6638C108.392 86.8827 108.935 86.3247 109.696 86.3247C110.457 86.3247 111 86.9942 111 87.6638C111 88.4449 110.457 89.0028 109.696 89.0028Z" fill="white"/>
<path d="M92.9596 1.6291C92.9596 2.36865 93.5435 2.96816 94.2637 2.96816C94.984 2.96816 95.5679 2.36865 95.5679 1.6291C95.5679 0.889558 94.984 0.290039 94.2637 0.290039C93.5435 0.290039 92.9596 0.889558 92.9596 1.6291Z" fill="#EA227A"/>
<path d="M92.9596 16.0241C92.9596 16.7637 93.5435 17.3632 94.2637 17.3632C94.984 17.3632 95.5679 16.7637 95.5679 16.0241C95.5679 15.2846 94.984 14.6851 94.2637 14.6851C93.5435 14.6851 92.9596 15.2846 92.9596 16.0241Z" fill="white"/>
<path d="M94.2637 31.6464C93.503 31.6464 92.9596 31.0884 92.9596 30.3073C92.9596 29.5262 93.503 28.9683 94.2637 28.9683C95.0245 28.9683 95.5679 29.5262 95.5679 30.3073C95.5679 31.0884 94.9158 31.6464 94.2637 31.6464Z" fill="white"/>
<path d="M94.2637 46.0414C93.503 46.0414 92.9596 45.4835 92.9596 44.7023C92.9596 43.9212 93.503 43.3633 94.2637 43.3633C95.0245 43.3633 95.5679 43.9212 95.5679 44.7023C95.5679 45.3719 94.9158 46.0414 94.2637 46.0414Z" fill="white"/>
<path d="M94.2637 60.3246C93.503 60.3246 92.9596 59.7667 92.9596 58.9855C92.9596 58.2044 93.503 57.6465 94.2637 57.6465C95.0245 57.6465 95.5679 58.2044 95.5679 58.9855C95.5679 59.7667 94.9158 60.3246 94.2637 60.3246Z" fill="white"/>
<path d="M92.9596 73.3806C92.9596 74.1201 93.5435 74.7196 94.2637 74.7196C94.984 74.7196 95.5679 74.1201 95.5679 73.3806C95.5679 72.641 94.984 72.0415 94.2637 72.0415C93.5435 72.0415 92.9596 72.641 92.9596 73.3806Z" fill="white"/>
<path d="M94.2637 89.0028C93.503 89.0028 92.9596 88.4449 92.9596 87.6638C92.9596 86.8827 93.503 86.3247 94.2637 86.3247C95.0245 86.3247 95.5679 86.8827 95.5679 87.6638C95.5679 88.4449 94.9158 89.0028 94.2637 89.0028Z" fill="white"/>
<path d="M78.723 2.96816C77.9623 2.96816 77.4189 2.41022 77.4189 1.6291C77.4189 0.847982 77.9623 0.290039 78.723 0.290039C79.4838 0.290039 80.0272 0.847982 80.0272 1.6291C80.1358 2.41022 79.4838 2.96816 78.723 2.96816Z" fill="white"/>
<path d="M78.723 17.3632C77.9623 17.3632 77.4189 16.8052 77.4189 16.0241C77.4189 15.243 77.9623 14.6851 78.723 14.6851C79.4838 14.6851 80.0272 15.243 80.0272 16.0241C80.1358 16.6937 79.4838 17.3632 78.723 17.3632Z" fill="white"/>
<path d="M78.723 31.6464C77.9623 31.6464 77.4189 31.0884 77.4189 30.3073C77.4189 29.5262 77.9623 28.9683 78.723 28.9683C79.4838 28.9683 80.0272 29.5262 80.0272 30.3073C80.1358 31.0884 79.4838 31.6464 78.723 31.6464Z" fill="#EA227A"/>
<path d="M78.723 46.0414C77.9623 46.0414 77.4189 45.4835 77.4189 44.7023C77.4189 43.9212 77.9623 43.3633 78.723 43.3633C79.4838 43.3633 80.0272 43.9212 80.0272 44.7023C80.1358 45.3719 79.4838 46.0414 78.723 46.0414Z" fill="white"/>
<path d="M78.723 60.3246C77.9623 60.3246 77.4189 59.7667 77.4189 58.9855C77.4189 58.2044 77.9623 57.6465 78.723 57.6465C79.4838 57.6465 80.0272 58.2044 80.0272 58.9855C80.1358 59.7667 79.4838 60.3246 78.723 60.3246Z" fill="white"/>
<path d="M78.7227 74.7196C77.962 74.7196 77.4186 74.1617 77.4186 73.3806C77.4186 72.5994 77.962 72.0415 78.7227 72.0415C79.4835 72.0415 80.0269 72.5994 80.0269 73.3806C80.0269 74.1617 79.4835 74.7196 78.7227 74.7196Z" fill="white"/>
<path d="M78.723 89.0028C77.9623 89.0028 77.4189 88.4449 77.4189 87.6638C77.4189 86.8827 77.9623 86.3247 78.723 86.3247C79.4838 86.3247 80.0272 86.8827 80.0272 87.6638C80.1358 88.4449 79.4838 89.0028 78.723 89.0028Z" fill="white"/>
<path d="M61.9865 1.6291C61.9865 2.36865 62.5703 2.96816 63.2906 2.96816C64.0108 2.96816 64.5947 2.36865 64.5947 1.6291C64.5947 0.889558 64.0108 0.290039 63.2906 0.290039C62.5703 0.290039 61.9865 0.889558 61.9865 1.6291Z" fill="white"/>
<path d="M61.9865 16.0241C61.9865 16.7637 62.5703 17.3632 63.2906 17.3632C64.0108 17.3632 64.5947 16.7637 64.5947 16.0241C64.5947 15.2846 64.0108 14.6851 63.2906 14.6851C62.5703 14.6851 61.9865 15.2846 61.9865 16.0241Z" fill="white"/>
<path d="M63.2906 31.6464C62.5299 31.6464 61.9865 31.0884 61.9865 30.3073C61.9865 29.5262 62.5299 28.9683 63.2906 28.9683C64.0513 28.9683 64.5947 29.5262 64.5947 30.3073C64.5947 31.0884 64.0513 31.6464 63.2906 31.6464Z" fill="white"/>
<path d="M63.2906 46.0414C62.5299 46.0414 61.9865 45.4835 61.9865 44.7023C61.9865 43.9212 62.5299 43.3633 63.2906 43.3633C64.0513 43.3633 64.5947 43.9212 64.5947 44.7023C64.5947 45.3719 64.0513 46.0414 63.2906 46.0414Z" fill="white"/>
<path d="M63.2906 60.3246C62.5299 60.3246 61.9865 59.7667 61.9865 58.9855C61.9865 58.2044 62.5299 57.6465 63.2906 57.6465C64.0513 57.6465 64.5947 58.2044 64.5947 58.9855C64.5947 59.7667 64.0513 60.3246 63.2906 60.3246Z" fill="#EA227A"/>
<path d="M61.9865 73.3806C61.9865 74.1201 62.5703 74.7196 63.2906 74.7196C64.0108 74.7196 64.5947 74.1201 64.5947 73.3806C64.5947 72.641 64.0108 72.0415 63.2906 72.0415C62.5703 72.0415 61.9865 72.641 61.9865 73.3806Z" fill="white"/>
<path d="M63.2906 89.0028C62.5299 89.0028 61.9865 88.4449 61.9865 87.6638C61.9865 86.8827 62.5299 86.3247 63.2906 86.3247C64.0513 86.3247 64.5947 86.8827 64.5947 87.6638C64.5947 88.4449 64.0513 89.0028 63.2906 89.0028Z" fill="white"/>
<path d="M47.8585 2.96816C47.0977 2.96816 46.5543 2.41022 46.5543 1.6291C46.5543 0.847982 47.0977 0.290039 47.8585 0.290039C48.6192 0.290039 49.1626 0.847982 49.1626 1.6291C49.1626 2.41022 48.6192 2.96816 47.8585 2.96816Z" fill="white"/>
<path d="M47.8585 17.3632C47.0977 17.3632 46.5543 16.8052 46.5543 16.0241C46.5543 15.243 47.0977 14.6851 47.8585 14.6851C48.6192 14.6851 49.1626 15.243 49.1626 16.0241C49.1626 16.6937 48.6192 17.3632 47.8585 17.3632Z" fill="white"/>
<path d="M47.8585 31.6464C47.0977 31.6464 46.5543 31.0884 46.5543 30.3073C46.5543 29.5262 47.0977 28.9683 47.8585 28.9683C48.6192 28.9683 49.1626 29.5262 49.1626 30.3073C49.1626 31.0884 48.6192 31.6464 47.8585 31.6464Z" fill="white"/>
<path d="M47.8585 46.0414C47.0977 46.0414 46.5543 45.4835 46.5543 44.7023C46.5543 43.9212 47.0977 43.3633 47.8585 43.3633C48.6192 43.3633 49.1626 43.9212 49.1626 44.7023C49.1626 45.3719 48.6192 46.0414 47.8585 46.0414Z" fill="white"/>
<path d="M48.2932 60.3246C47.7498 60.3246 47.4238 59.7667 47.4238 58.9855C47.4238 58.2044 47.8585 57.6465 48.2932 57.6465C48.8366 57.6465 49.1626 58.2044 49.1626 58.9855C49.1626 59.7667 48.7279 60.3246 48.2932 60.3246Z" fill="white"/>
<path d="M47.8585 74.7196C47.0977 74.7196 46.5543 74.1617 46.5543 73.3806C46.5543 72.5994 47.0977 72.0415 47.8585 72.0415C48.6192 72.0415 49.1626 72.5994 49.1626 73.3806C49.1626 74.1617 48.6192 74.7196 47.8585 74.7196Z" fill="white"/>
<path d="M47.8585 89.0028C47.0977 89.0028 46.5543 88.4449 46.5543 87.6638C46.5543 86.8827 47.0977 86.3247 47.8585 86.3247C48.6192 86.3247 49.1626 86.8827 49.1626 87.6638C49.1626 88.4449 48.6192 89.0028 47.8585 89.0028Z" fill="white"/>
<path d="M31.1222 1.6291C31.1222 2.36865 31.7061 2.96816 32.4263 2.96816C33.1466 2.96816 33.7305 2.36865 33.7305 1.6291C33.7305 0.889558 33.1466 0.290039 32.4263 0.290039C31.7061 0.290039 31.1222 0.889558 31.1222 1.6291Z" fill="white"/>
<path d="M31.1222 16.0241C31.1222 16.7637 31.7061 17.3632 32.4263 17.3632C33.1466 17.3632 33.7305 16.7637 33.7305 16.0241C33.7305 15.2846 33.1466 14.6851 32.4263 14.6851C31.7061 14.6851 31.1222 15.2846 31.1222 16.0241Z" fill="white"/>
<path d="M32.4263 31.6464C31.6656 31.6464 31.1222 31.0884 31.1222 30.3073C31.1222 29.5262 31.6656 28.9683 32.4263 28.9683C33.1871 28.9683 33.7305 29.5262 33.7305 30.3073C33.7305 31.0884 33.1871 31.6464 32.4263 31.6464Z" fill="white"/>
<path d="M32.4263 46.0414C31.6656 46.0414 31.1222 45.4835 31.1222 44.7023C31.1222 43.9212 31.6656 43.3633 32.4263 43.3633C33.1871 43.3633 33.7305 43.9212 33.7305 44.7023C33.7305 45.3719 33.1871 46.0414 32.4263 46.0414Z" fill="#EA227A"/>
<path d="M32.4263 60.3246C31.6656 60.3246 31.1222 59.7667 31.1222 58.9855C31.1222 58.2044 31.6656 57.6465 32.4263 57.6465C33.1871 57.6465 33.7305 58.2044 33.7305 58.9855C33.7305 59.7667 33.1871 60.3246 32.4263 60.3246Z" fill="white"/>
<path d="M31.1222 73.3806C31.1222 74.1201 31.7061 74.7196 32.4263 74.7196C33.1466 74.7196 33.7305 74.1201 33.7305 73.3806C33.7305 72.641 33.1466 72.0415 32.4263 72.0415C31.7061 72.0415 31.1222 72.641 31.1222 73.3806Z" fill="white"/>
<path d="M32.4263 89.0028C31.6656 89.0028 31.1222 88.4449 31.1222 87.6638C31.1222 86.8827 31.6656 86.3247 32.4263 86.3247C33.1871 86.3247 33.7305 86.8827 33.7305 87.6638C33.7305 88.4449 33.1871 89.0028 32.4263 89.0028Z" fill="white"/>
<path d="M15.6901 1.6291C15.6901 2.36865 16.274 2.96816 16.9942 2.96816C17.7145 2.96816 18.2983 2.36865 18.2983 1.6291C18.2983 0.889558 17.7145 0.290039 16.9942 0.290039C16.274 0.290039 15.6901 0.889558 15.6901 1.6291Z" fill="white"/>
<path d="M15.6901 16.0241C15.6901 16.7637 16.274 17.3632 16.9942 17.3632C17.7145 17.3632 18.2983 16.7637 18.2983 16.0241C18.2983 15.2846 17.7145 14.6851 16.9942 14.6851C16.274 14.6851 15.6901 15.2846 15.6901 16.0241Z" fill="white"/>
<path d="M16.9942 31.6464C16.2335 31.6464 15.6901 31.0884 15.6901 30.3073C15.6901 29.5262 16.2335 28.9683 16.9942 28.9683C17.755 28.9683 18.2983 29.5262 18.2983 30.3073C18.2983 31.0884 17.6463 31.6464 16.9942 31.6464Z" fill="white"/>
<path d="M16.9942 46.0414C16.2335 46.0414 15.6901 45.4835 15.6901 44.7023C15.6901 43.9212 16.2335 43.3633 16.9942 43.3633C17.755 43.3633 18.2983 43.9212 18.2983 44.7023C18.2983 45.3719 17.6463 46.0414 16.9942 46.0414Z" fill="white"/>
<path d="M16.9942 60.3246C16.2335 60.3246 15.6901 59.7667 15.6901 58.9855C15.6901 58.2044 16.2335 57.6465 16.9942 57.6465C17.755 57.6465 18.2983 58.2044 18.2983 58.9855C18.2983 59.7667 17.6463 60.3246 16.9942 60.3246Z" fill="white"/>
<path d="M15.6901 73.3806C15.6901 74.1201 16.274 74.7196 16.9942 74.7196C17.7145 74.7196 18.2983 74.1201 18.2983 73.3806C18.2983 72.641 17.7145 72.0415 16.9942 72.0415C16.274 72.0415 15.6901 72.641 15.6901 73.3806Z" fill="#EA227A"/>
<path d="M16.9942 89.0028C16.2335 89.0028 15.6901 88.4449 15.6901 87.6638C15.6901 86.8827 16.2335 86.3247 16.9942 86.3247C17.755 86.3247 18.2983 86.8827 18.2983 87.6638C18.2983 88.4449 17.6463 89.0028 16.9942 89.0028Z" fill="white"/>
<path d="M1.4535 2.96816C0.692754 2.96816 0.149368 2.41022 0.149368 1.6291C0.149368 0.847982 0.692754 0.290039 1.4535 0.290039C2.21424 0.290039 2.75764 0.847982 2.75764 1.6291C2.86632 2.41022 2.21424 2.96816 1.4535 2.96816Z" fill="white"/>
<path d="M1.4535 17.3632C0.692754 17.3632 0.149368 16.8052 0.149368 16.0241C0.149368 15.243 0.692754 14.6851 1.4535 14.6851C2.21424 14.6851 2.75764 15.243 2.75764 16.0241C2.86632 16.6937 2.21424 17.3632 1.4535 17.3632Z" fill="#EA227A"/>
<path d="M1.4535 31.6464C0.692754 31.6464 0.149368 31.0884 0.149368 30.3073C0.149368 29.5262 0.692754 28.9683 1.4535 28.9683C2.21424 28.9683 2.75764 29.5262 2.75764 30.3073C2.86632 31.0884 2.21424 31.6464 1.4535 31.6464Z" fill="white"/>
<path d="M1.4535 46.0414C0.692754 46.0414 0.149368 45.4835 0.149368 44.7023C0.149368 43.9212 0.692754 43.3633 1.4535 43.3633C2.21424 43.3633 2.75764 43.9212 2.75764 44.7023C2.86632 45.3719 2.21424 46.0414 1.4535 46.0414Z" fill="white"/>
<path d="M1.4535 60.3246C0.692754 60.3246 0.149368 59.7667 0.149368 58.9855C0.149368 58.2044 0.692754 57.6465 1.4535 57.6465C2.21424 57.6465 2.75764 58.2044 2.75764 58.9855C2.86632 59.7667 2.21424 60.3246 1.4535 60.3246Z" fill="white"/>
<path d="M1.45319 74.7196C0.692453 74.7196 0.149071 74.1617 0.149071 73.3806C0.149071 72.5994 0.692453 72.0415 1.45319 72.0415C2.21393 72.0415 2.75732 72.5994 2.75732 73.3806C2.75732 74.1617 2.21393 74.7196 1.45319 74.7196Z" fill="white"/>
<path d="M1.4535 89.0028C0.692754 89.0028 0.149368 88.4449 0.149368 87.6638C0.149368 86.8827 0.692754 86.3247 1.4535 86.3247C2.21424 86.3247 2.75764 86.8827 2.75764 87.6638C2.86632 88.4449 2.21424 89.0028 1.4535 89.0028Z" fill="white"/>
</g>
<defs>
<clipPath id="clip0_208_187">
<rect width="88.7129" height="110.851" fill="white" transform="translate(111 0.290039) rotate(90)"/>
</clipPath>
</defs>
</svg>
