<svg width="350" height="273" viewBox="0 0 350 273" fill="none" xmlns="http://www.w3.org/2000/svg">
<g clip-path="url(#clip0_4_90)">
<path d="M341.765 4.12076C341.765 6.39659 343.608 8.24151 345.882 8.24151C348.156 8.24151 350 6.39659 350 4.12076C350 1.84493 348.156 -8.05834e-08 345.882 -1.79988e-07C343.608 -2.79393e-07 341.765 1.84492 341.765 4.12076Z" fill="#EA227A"/>
<path d="M341.765 48.4189C341.765 50.6947 343.608 52.5396 345.882 52.5396C348.156 52.5396 350 50.6947 350 48.4189C350 46.1431 348.156 44.2981 345.882 44.2981C343.608 44.2981 341.765 46.1431 341.765 48.4189Z" fill="#EA227A"/>
<path d="M345.882 96.4944C343.48 96.4944 341.765 94.7774 341.765 92.3736C341.765 89.9698 343.48 88.2528 345.882 88.2528C348.284 88.2528 350 89.9698 350 92.3736C350 94.7774 348.284 96.4944 345.882 96.4944Z" fill="#EA227A"/>
<path d="M345.882 140.792C343.48 140.792 341.765 139.076 341.765 136.672C341.765 134.268 343.48 132.551 345.882 132.551C348.284 132.551 350 134.268 350 136.672C350 138.732 348.284 140.792 345.882 140.792Z" fill="#EA227A"/>
<path d="M345.882 184.747C343.48 184.747 341.765 183.03 341.765 180.626C341.765 178.223 343.48 176.506 345.882 176.506C348.284 176.506 350 178.566 350 180.626C350 183.03 348.284 184.747 345.882 184.747Z" fill="black"/>
<path d="M341.765 224.925C341.765 227.2 343.608 229.045 345.882 229.045C348.156 229.045 350 227.2 350 224.925C350 222.649 348.156 220.804 345.882 220.804C343.608 220.804 341.765 222.649 341.765 224.925Z" fill="#EA227A"/>
<path d="M345.882 273C343.48 273 341.765 271.283 341.765 268.879C341.765 266.476 343.48 264.759 345.882 264.759C348.284 264.759 350 266.819 350 268.879C350 271.283 348.284 273 345.882 273Z" fill="#EA227A"/>
<path d="M293.039 4.12076C293.039 6.39659 294.883 8.24151 297.157 8.24151C299.431 8.24151 301.274 6.39659 301.274 4.12076C301.274 1.84493 299.431 -8.05834e-08 297.157 -1.79988e-07C294.883 -2.79393e-07 293.039 1.84492 293.039 4.12076Z" fill="black"/>
<path d="M293.039 48.4189C293.039 50.6947 294.883 52.5396 297.157 52.5396C299.431 52.5396 301.274 50.6947 301.274 48.4189C301.274 46.1431 299.431 44.2981 297.157 44.2981C294.883 44.2981 293.039 46.1431 293.039 48.4189Z" fill="#EA227A"/>
<path d="M297.157 96.4944C294.755 96.4944 293.039 94.7774 293.039 92.3736C293.039 89.9698 294.755 88.2528 297.157 88.2528C299.559 88.2528 301.274 89.9698 301.274 92.3736C301.274 94.7774 299.216 96.4944 297.157 96.4944Z" fill="#EA227A"/>
<path d="M297.157 140.792C294.755 140.792 293.039 139.076 293.039 136.672C293.039 134.268 294.755 132.551 297.157 132.551C299.559 132.551 301.274 134.268 301.274 136.672C301.274 138.732 299.216 140.792 297.157 140.792Z" fill="#EA227A"/>
<path d="M297.157 184.747C294.755 184.747 293.039 183.03 293.039 180.626C293.039 178.223 294.755 176.506 297.157 176.506C299.559 176.506 301.274 178.223 301.274 180.626C301.274 183.03 299.216 184.747 297.157 184.747Z" fill="#EA227A"/>
<path d="M293.039 224.925C293.039 227.2 294.883 229.045 297.157 229.045C299.431 229.045 301.274 227.2 301.274 224.925C301.274 222.649 299.431 220.804 297.157 220.804C294.883 220.804 293.039 222.649 293.039 224.925Z" fill="#EA227A"/>
<path d="M297.157 273C294.755 273 293.039 271.283 293.039 268.879C293.039 266.476 294.755 264.759 297.157 264.759C299.559 264.759 301.274 266.476 301.274 268.879C301.274 271.283 299.216 273 297.157 273Z" fill="#EA227A"/>
<path d="M248.088 8.24151C245.686 8.24151 243.971 6.52453 243.971 4.12076C243.971 1.71698 245.686 -2.86622e-07 248.088 -1.81629e-07C250.49 -7.66365e-08 252.206 1.71698 252.206 4.12076C252.549 6.52453 250.49 8.24151 248.088 8.24151Z" fill="#EA227A"/>
<path d="M248.088 52.5396C245.686 52.5396 243.971 50.8227 243.971 48.4189C243.971 46.0151 245.686 44.2981 248.088 44.2981C250.49 44.2981 252.206 46.0151 252.206 48.4189C252.549 50.4793 250.49 52.5396 248.088 52.5396Z" fill="#EA227A"/>
<path d="M248.088 96.4944C245.686 96.4944 243.971 94.7774 243.971 92.3736C243.971 89.9698 245.686 88.2528 248.088 88.2528C250.49 88.2528 252.206 89.9698 252.206 92.3736C252.549 94.7774 250.49 96.4944 248.088 96.4944Z" fill="black"/>
<path d="M248.088 140.792C245.686 140.792 243.971 139.076 243.971 136.672C243.971 134.268 245.686 132.551 248.088 132.551C250.49 132.551 252.206 134.268 252.206 136.672C252.549 138.732 250.49 140.792 248.088 140.792Z" fill="#EA227A"/>
<path d="M248.088 184.747C245.686 184.747 243.971 183.03 243.971 180.626C243.971 178.223 245.686 176.506 248.088 176.506C250.49 176.506 252.206 178.223 252.206 180.626C252.549 183.03 250.49 184.747 248.088 184.747Z" fill="#EA227A"/>
<path d="M248.088 229.045C245.686 229.045 243.971 227.328 243.971 224.925C243.971 222.521 245.686 220.804 248.088 220.804C250.49 220.804 252.206 222.521 252.206 224.925C252.206 227.328 250.49 229.045 248.088 229.045Z" fill="#EA227A"/>
<path d="M248.088 273C245.686 273 243.971 271.283 243.971 268.879C243.971 266.476 245.686 264.759 248.088 264.759C250.49 264.759 252.206 266.476 252.206 268.879C252.549 271.283 250.49 273 248.088 273Z" fill="#EA227A"/>
<path d="M195.245 4.12076C195.245 6.39659 197.089 8.24151 199.363 8.24151C201.637 8.24151 203.48 6.39659 203.48 4.12076C203.48 1.84493 201.637 -8.05836e-08 199.363 -1.79988e-07C197.089 -2.79393e-07 195.245 1.84492 195.245 4.12076Z" fill="#EA227A"/>
<path d="M195.245 48.4189C195.245 50.6947 197.089 52.5396 199.363 52.5396C201.637 52.5396 203.48 50.6947 203.48 48.4189C203.48 46.1431 201.637 44.2981 199.363 44.2981C197.089 44.2981 195.245 46.1431 195.245 48.4189Z" fill="#EA227A"/>
<path d="M199.363 96.4944C196.961 96.4944 195.245 94.7774 195.245 92.3736C195.245 89.9698 196.961 88.2528 199.363 88.2528C201.765 88.2528 203.48 89.9698 203.48 92.3736C203.48 94.7774 201.765 96.4944 199.363 96.4944Z" fill="#EA227A"/>
<path d="M199.363 140.792C196.961 140.792 195.245 139.076 195.245 136.672C195.245 134.268 196.961 132.551 199.363 132.551C201.765 132.551 203.48 134.268 203.48 136.672C203.48 138.732 201.765 140.792 199.363 140.792Z" fill="#EA227A"/>
<path d="M199.363 184.747C196.961 184.747 195.245 183.03 195.245 180.626C195.245 178.223 196.961 176.506 199.363 176.506C201.765 176.506 203.48 178.223 203.48 180.626C203.48 183.03 201.765 184.747 199.363 184.747Z" fill="black"/>
<path d="M195.245 224.925C195.245 227.2 197.089 229.045 199.363 229.045C201.637 229.045 203.48 227.2 203.48 224.925C203.48 222.649 201.637 220.804 199.363 220.804C197.089 220.804 195.245 222.649 195.245 224.925Z" fill="#EA227A"/>
<path d="M199.363 273C196.961 273 195.245 271.283 195.245 268.879C195.245 266.476 196.961 264.759 199.363 264.759C201.765 264.759 203.48 266.476 203.48 268.879C203.48 271.283 201.765 273 199.363 273Z" fill="#EA227A"/>
<path d="M150.637 8.24151C148.235 8.24151 146.52 6.52453 146.52 4.12076C146.52 1.71698 148.235 -2.84981e-07 150.637 -1.79988e-07C153.039 -7.49946e-08 154.755 1.71698 154.755 4.12076C154.755 6.52453 153.039 8.24151 150.637 8.24151Z" fill="#EA227A"/>
<path d="M150.637 52.5396C148.235 52.5396 146.52 50.8226 146.52 48.4189C146.52 46.0151 148.235 44.2981 150.637 44.2981C153.039 44.2981 154.755 46.0151 154.755 48.4189C154.755 50.4792 153.039 52.5396 150.637 52.5396Z" fill="#EA227A"/>
<path d="M150.637 96.4944C148.235 96.4944 146.52 94.7774 146.52 92.3736C146.52 89.9698 148.235 88.2528 150.637 88.2528C153.039 88.2528 154.755 89.9698 154.755 92.3736C154.755 94.7774 153.039 96.4944 150.637 96.4944Z" fill="#EA227A"/>
<path d="M150.637 140.792C148.235 140.792 146.52 139.076 146.52 136.672C146.52 134.268 148.235 132.551 150.637 132.551C153.039 132.551 154.755 134.268 154.755 136.672C154.755 138.732 153.039 140.792 150.637 140.792Z" fill="#EA227A"/>
<path d="M152.01 184.747C150.294 184.747 149.265 183.03 149.265 180.626C149.265 178.223 150.637 176.506 152.01 176.506C153.725 176.506 154.755 178.223 154.755 180.626C154.755 183.03 153.382 184.747 152.01 184.747Z" fill="#EA227A"/>
<path d="M150.637 229.045C148.235 229.045 146.52 227.328 146.52 224.925C146.52 222.521 148.235 220.804 150.637 220.804C153.039 220.804 154.755 222.521 154.755 224.925C154.755 227.328 153.039 229.045 150.637 229.045Z" fill="#EA227A"/>
<path d="M150.637 273C148.235 273 146.52 271.283 146.52 268.879C146.52 266.476 148.235 264.759 150.637 264.759C153.039 264.759 154.755 266.476 154.755 268.879C154.755 271.283 153.039 273 150.637 273Z" fill="#EA227A"/>
<path d="M97.794 4.12076C97.794 6.39659 99.6375 8.24151 101.912 8.24151C104.186 8.24151 106.029 6.39659 106.029 4.12076C106.029 1.84493 104.186 -8.05839e-08 101.912 -1.79988e-07C99.6375 -2.79393e-07 97.794 1.84492 97.794 4.12076Z" fill="#EA227A"/>
<path d="M97.794 48.4189C97.794 50.6947 99.6375 52.5396 101.912 52.5396C104.186 52.5396 106.029 50.6947 106.029 48.4189C106.029 46.143 104.186 44.2981 101.912 44.2981C99.6375 44.2981 97.794 46.143 97.794 48.4189Z" fill="#EA227A"/>
<path d="M101.912 96.4944C99.5097 96.4944 97.794 94.7774 97.794 92.3736C97.794 89.9698 99.5097 88.2528 101.912 88.2528C104.314 88.2528 106.029 89.9698 106.029 92.3736C106.029 94.7774 104.314 96.4944 101.912 96.4944Z" fill="#EA227A"/>
<path d="M101.912 140.792C99.5097 140.792 97.794 139.076 97.794 136.672C97.794 134.268 99.5097 132.551 101.912 132.551C104.314 132.551 106.029 134.268 106.029 136.672C106.029 138.732 104.314 140.792 101.912 140.792Z" fill="black"/>
<path d="M101.912 184.747C99.5097 184.747 97.794 183.03 97.794 180.626C97.794 178.223 99.5097 176.506 101.912 176.506C104.314 176.506 106.029 178.223 106.029 180.626C106.029 183.03 104.314 184.747 101.912 184.747Z" fill="#EA227A"/>
<path d="M97.794 224.925C97.794 227.2 99.6375 229.045 101.912 229.045C104.186 229.045 106.029 227.2 106.029 224.925C106.029 222.649 104.186 220.804 101.912 220.804C99.6375 220.804 97.794 222.649 97.794 224.925Z" fill="#EA227A"/>
<path d="M101.912 273C99.5097 273 97.794 271.283 97.794 268.879C97.794 266.476 99.5097 264.759 101.912 264.759C104.314 264.759 106.029 266.476 106.029 268.879C106.029 271.283 104.314 273 101.912 273Z" fill="#EA227A"/>
<path d="M49.0687 4.12076C49.0687 6.39659 50.9122 8.24151 53.1863 8.24151C55.4604 8.24151 57.304 6.39659 57.304 4.12076C57.304 1.84493 55.4604 -8.05831e-08 53.1863 -1.79988e-07C50.9122 -2.79393e-07 49.0687 1.84492 49.0687 4.12076Z" fill="#EA227A"/>
<path d="M49.0687 48.4189C49.0687 50.6947 50.9122 52.5396 53.1863 52.5396C55.4604 52.5396 57.304 50.6947 57.304 48.4189C57.304 46.143 55.4604 44.2981 53.1863 44.2981C50.9122 44.2981 49.0687 46.143 49.0687 48.4189Z" fill="#EA227A"/>
<path d="M53.1863 96.4944C50.7843 96.4944 49.0687 94.7774 49.0687 92.3736C49.0687 89.9698 50.7843 88.2528 53.1863 88.2528C55.5883 88.2528 57.304 89.9698 57.304 92.3736C57.304 94.7774 55.2451 96.4944 53.1863 96.4944Z" fill="#EA227A"/>
<path d="M53.1863 140.792C50.7843 140.792 49.0687 139.076 49.0687 136.672C49.0687 134.268 50.7843 132.551 53.1863 132.551C55.5883 132.551 57.304 134.268 57.304 136.672C57.304 138.732 55.2451 140.792 53.1863 140.792Z" fill="#EA227A"/>
<path d="M53.1863 184.747C50.7843 184.747 49.0687 183.03 49.0687 180.626C49.0687 178.223 50.7843 176.506 53.1863 176.506C55.5883 176.506 57.304 178.223 57.304 180.626C57.304 183.03 55.2451 184.747 53.1863 184.747Z" fill="#EA227A"/>
<path d="M49.0687 224.925C49.0687 227.2 50.9122 229.045 53.1863 229.045C55.4604 229.045 57.304 227.2 57.304 224.925C57.304 222.649 55.4604 220.804 53.1863 220.804C50.9122 220.804 49.0687 222.649 49.0687 224.925Z" fill="black"/>
<path d="M53.1863 273C50.7843 273 49.0687 271.283 49.0687 268.879C49.0687 266.476 50.7843 264.759 53.1863 264.759C55.5883 264.759 57.304 266.476 57.304 268.879C57.304 271.283 55.2451 273 53.1863 273Z" fill="#EA227A"/>
<path d="M4.11772 8.24151C1.71574 8.24151 6.075e-05 6.52453 6.0855e-05 4.12076C6.09601e-05 1.71698 1.71574 -2.86625e-07 4.11772 -1.81631e-07C6.51969 -7.66375e-08 8.2354 1.71698 8.2354 4.12076C8.57854 6.52453 6.51969 8.24151 4.11772 8.24151Z" fill="#EA227A"/>
<path d="M4.11772 52.5396C1.71574 52.5396 6.075e-05 50.8226 6.0855e-05 48.4189C6.09601e-05 46.0151 1.71574 44.2981 4.11772 44.2981C6.51969 44.2981 8.2354 46.0151 8.2354 48.4189C8.57854 50.4792 6.51969 52.5396 4.11772 52.5396Z" fill="black"/>
<path d="M4.11772 96.4944C1.71574 96.4944 6.075e-05 94.7774 6.0855e-05 92.3736C6.09601e-05 89.9698 1.71574 88.2528 4.11772 88.2528C6.51969 88.2528 8.2354 89.9698 8.2354 92.3736C8.57854 94.7774 6.51969 96.4944 4.11772 96.4944Z" fill="#EA227A"/>
<path d="M4.11772 140.792C1.71574 140.792 6.075e-05 139.076 6.0855e-05 136.672C6.09601e-05 134.268 1.71574 132.551 4.11772 132.551C6.51969 132.551 8.2354 134.268 8.2354 136.672C8.57854 138.732 6.51969 140.792 4.11772 140.792Z" fill="#EA227A"/>
<path d="M4.11772 184.747C1.71574 184.747 6.075e-05 183.03 6.0855e-05 180.626C6.09601e-05 178.223 1.71574 176.506 4.11772 176.506C6.51969 176.506 8.2354 178.223 8.2354 180.626C8.57854 183.03 6.51969 184.747 4.11772 184.747Z" fill="#EA227A"/>
<path d="M4.11769 229.045C1.71573 229.045 6.075e-05 227.328 6.0855e-05 224.925C6.09601e-05 222.521 1.71573 220.804 4.11769 220.804C6.51965 220.804 8.23535 222.521 8.23535 224.925C8.23535 227.328 6.51965 229.045 4.11769 229.045Z" fill="#EA227A"/>
<path d="M4.11772 273C1.71574 273 6.075e-05 271.283 6.0855e-05 268.879C6.09601e-05 266.476 1.71574 264.759 4.11772 264.759C6.51969 264.759 8.2354 266.476 8.2354 268.879C8.57854 271.283 6.51969 273 4.11772 273Z" fill="#EA227A"/>
</g>
<defs>
<clipPath id="clip0_4_90">
<rect width="273" height="350" fill="white" transform="translate(350) rotate(90)"/>
</clipPath>
</defs>
</svg>
