<svg width="576" height="270" fill="none" xmlns="http://www.w3.org/2000/svg"><g clip-path="url(#a)" fill="#000" fill-opacity=".08"><g clip-path="url(#b)"><path d="m-33.034 284.251 54.784 54.784 187.77-187.77-54.784-54.785-187.77 187.771Z"/><path d="m22.702 97.124-55.095 55.094 186.715 186.714 55.094-55.094L22.702 97.123Z"/></g><g clip-path="url(#c)"><path d="m252.49 322.076 85.949 85.949 294.587-294.586-85.95-85.949L252.49 322.076Z"/><path d="m339.933 28.5-86.435 86.435 292.929 292.929 86.436-86.436-292.93-292.929Z"/></g></g><defs><clipPath id="a"><path fill="#fff" d="M0 0h576v270H0z"/></clipPath><clipPath id="b"><path fill="#fff" transform="rotate(-135 127.736 184.334)" d="M0 0h264.054v265.548H0z"/></clipPath><clipPath id="c"><path fill="#fff" transform="rotate(-135 326.903 164.23)" d="M0 0h414.264v416.608H0z"/></clipPath></defs></svg>