<svg width="2000" height="2479" fill="none" xmlns="http://www.w3.org/2000/svg"><g clip-path="url(#a)"><path d="M483.776 1961.59c265.331 0 480.425-218.75 480.425-488.59S749.107 984.407 483.776 984.407C218.444 984.407 3.35 1203.16 3.35 1473c0 269.84 215.094 488.59 480.426 488.59Z" stroke="#EA227A" stroke-width="3.307" stroke-miterlimit="10"/><g clip-path="url(#b)" fill="#000" fill-opacity=".08"><path d="m1612.06 2341.22-33.6-33.6 115.16-115.16 33.6 33.6-115.16 115.16Z"/><path d="m1726.83 2307.04-33.79 33.79-114.52-114.52 33.79-33.79 114.52 114.52Z"/></g><g clip-path="url(#c)" fill="#000" fill-opacity=".08"><path d="m1787.06 2341.22-33.6-33.6 115.16-115.16 33.6 33.6-115.16 115.16Z"/><path d="m1901.83 2307.04-33.79 33.79-114.52-114.52 33.79-33.79 114.52 114.52Z"/></g><g clip-path="url(#d)" fill="#000" fill-opacity=".08"><path d="m116.047 1028.35 44.056 44.05 151-150.996-44.056-44.056-151 151.002Z"/><path d="m160.869 877.865-44.306 44.305 150.151 150.15 44.305-44.3-150.15-150.155Z"/></g><g clip-path="url(#e)" fill="#000" fill-opacity=".08"><path d="m116.047 678.198 44.056 44.056 151-151-44.056-44.056-151 151Z"/><path d="m160.869 527.715-44.306 44.305 150.151 150.151 44.305-44.306-150.15-150.15Z"/></g><g clip-path="url(#f)" fill="#000" fill-opacity=".08"><path d="m116.047 328.047 44.056 44.057 151-151-44.056-44.057-151 151Z"/><path d="m160.869 177.564-44.306 44.306 150.151 150.15 44.305-44.305-150.15-150.151Z"/></g><g clip-path="url(#g)" fill="#000" fill-opacity=".08"><path d="m390.113 543.423-8.258 8.257-28.141-28.142 8.257-8.257 28.142 28.142Z"/><path d="m381.815 515.322 8.257 8.257-28.142 28.142-8.257-8.257 28.142-28.142Z"/></g><g clip-path="url(#h)" fill="#000" fill-opacity=".08"><path d="m390.113 478.253-8.258 8.257-28.141-28.141 8.257-8.257 28.142 28.141Z"/><path d="m381.815 450.153 8.257 8.257-28.142 28.141-8.257-8.257 28.142-28.141Z"/></g><g clip-path="url(#i)" fill="#000" fill-opacity=".08"><path d="m390.113 413.084-8.258 8.257-28.141-28.142 8.257-8.257 28.142 28.142Z"/><path d="m381.815 384.983 8.257 8.257-28.142 28.142-8.257-8.257 28.142-28.142Z"/></g><g clip-path="url(#j)"><path d="M1055.56 488.653c104.89 0 189.92-86.477 189.92-193.153 0-106.675-85.03-193.153-189.92-193.153-104.897 0-189.929 86.478-189.929 193.153 0 106.676 85.032 193.153 189.929 193.153Z" stroke="#EA227A" stroke-width="3.307" stroke-miterlimit="10"/></g><g clip-path="url(#k)"><path d="M1179.45 558.262c57.43 0 103.99-47.351 103.99-105.762s-46.56-105.763-103.99-105.763c-57.44 0-104 47.352-104 105.763 0 58.411 46.56 105.762 104 105.762Z" stroke="#000" stroke-width="3.307" stroke-miterlimit="10"/></g><g clip-path="url(#l)" fill="#000" fill-opacity=".08"><path d="m1104.63 1941.14 180.75 180.74 619.5-619.5-180.75-180.74-619.5 619.5Z"/><path d="m1288.52 1323.76-181.77 181.77 616.02 616.01 181.77-181.77-616.02-616.01Z"/></g><g clip-path="url(#m)"><path d="M1334.2 425.78c-.07 6.879 3.68 12.301 9.75 15.68 6.06 3.38 12.47 6.767 18.86 9.762 2.21 1.034 4.94 1.074 7.45 1.338 4.8.496 9.76.064 14.28 1.353 19.38 5.526 38.48 12.309 60.13 10.099-.1.937-.2 1.874-.32 2.795-1.24 10.707-2.73 20.605-3.24 30.56-.7 13.47-.46 26.988-.62 40.49-.21 15.91-.4 31.826-.6 47.746-.04 3.869.07 7.745.09 11.621 0 1.289.5 3.275-.13 3.764-5.23 4.004-2.75 8.585-1.82 13.189.07.321.12.641.17.961.31 2.171-.17 5.094-1.46 6.744-11.05 14.038-14.63 31.08-18.17 47.73a373.31 373.31 0 0 0-7.61 54.793c-1.77 28.975-2.22 58.061-2.4 87.1-.06 10.619 2.69 21.23 3.42 31.889.66 9.424.7 18.88.14 28.31-.56 8.729 1.03 15.592 8.32 21.542 8.63 7.032 15.99 15.633 24.23 23.129 2.5 2.266 6.26 3.139 9.46 4.628 1.31.609 2.97.849 3.93 1.81 20.34 20.398 46.22 32.562 69.98 47.939 8.2 5.301 14.39 13.806 21.22 21.102.8.881.42 3.523-.19 5.037-2.79 6.999-1.35 12.809 5.77 15.309 11.28 3.92 16.32 13.21 20.26 22.76 5.09 12.4 11.72 24.31 13.37 38.07 1.01 8.52 5.79 15.1 13.9 18.77h6.45c13.79-11.8 18-27.16 16.37-44.61-.38-4.5-1.03-8.98-1.94-13.4-2.63-12.24-2.64-23.85 3.06-35.682 6-12.477 4.89-25.45-1.76-37.863-2.98-5.606-6.83-8.714-13.41-6.928-5.6 1.522-11.82 1.898-16.61 4.741-12.94 7.68-24.57 2.603-33.67-5.045-16.21-13.614-31.71-28.414-39.4-49.316-3.7-10.058-11.98-16.625-20.38-22.728-5.91-4.292-12.16-8.128-17.9-12.605-1.99-1.545-4.06-4.38-4.15-6.703-.46-11.124-.87-22.311-.1-33.387.55-7.784 7.49-11.404 14-12.149 13.59-1.561 27.46-2.514 41.09-1.761 3.71.208 7.99 6.887 10.33 11.468 3.94 7.824 6.62 16.305 9.64 24.577 3.37 9.25 9.59 15.833 18.61 19.373 11.99 4.677 23.98 9.385 36.27 13.125 4.44 1.354 9.72-.24 14.61-.16 13.53.225 27.18-.424 40.5 1.474 5.23.745 9.71 7.207 14.39 11.316 1.81 1.601 2.73 4.605 4.72 5.526 5.6 2.626 7.99 7.111 9.79 12.685 2.96 8.969 5.81 18.171 10.33 26.379 4.15 7.552 9.59 14.928 15.98 20.582 9.22 8.097 24.33 2.523 26.01-9.61 2.51-18.179 3.39-36.486-7.51-53.024a220.062 220.062 0 0 1-13.44-22.752 156.992 156.992 0 0 1-9.94-24.241c-4.8-15.769-16.03-22.423-32.18-18.587-8.41 1.986-9.59 8.753-11.19 15.832-10.74-6.599-20.73-13.614-31.53-19.084-7.89-4.004-16.73-6.214-25.36-8.417-3.3-.801-5.37-1.281-5.98-5.021-.88-5.47-2.27-10.859-3.04-14.415 3.28-2.643 6.05-4.004 7.44-6.167 3.78-5.982 6.97-12.332 10.39-18.531.31-.553.55-1.385 1.03-1.602 8.9-3.611 6.71-10.659 5.48-17.442-1.3-7.208-2.2-14.487-3.99-21.551-1.02-4.004-2.62-8.529-5.41-11.404-11.68-12.012-14.8-28.437-22.47-42.444-1.04-1.89-.45-4.645-.74-6.975-.63-5.046-1.37-10.083-2.02-15.128-.34-2.539-1.22-5.214-.8-7.624 1.6-8.585-.84-15.641-6.84-21.775-4.54-4.637-6.19-10.179-6.84-16.818-.62-6.126-3.63-12.165-6.33-17.883-2.18-4.604-5.66-8.577-8.16-13.061-.7-1.25-.3-3.396.14-4.981 1.73-6.095 5.5-12.221 5.23-18.18a95.723 95.723 0 0 1-.1-3.772c-.23-20.453 5.33-39.457 12.79-58.237.7-1.77 1.33-3.571 1.93-5.381 1.74-5.35 3.19-10.812 5.37-15.961 1.86-4.389 5.59-7.944 7.76-12.229 2.18-4.284 4.51-8.761 4.84-13.31.95-13.078 3.11-25.435 12.54-35.429 13.07-13.871 17.29-31.281 19.47-49.484.28-2.306.43-4.917 1.6-6.775 10.77-17.066 15.79-36.094 19.66-55.602 3.4-17.146 8.42-33.772 16.73-49.284 5.3-9.882 6.71-20.197 3.25-31.145-6.3-20.01-12.46-40.071-18.49-60.183-2.39-8.008-9.31-10.411-15.52-13.302-7.28-3.411-15.03-5.726-22.56-8.529h-19.33c-4 1.514-8.09 2.747-11.91 4.581-19.68 9.474-30.14 29.791-25.85 49.876a46.98 46.98 0 0 0 16.22 26.435 46.881 46.881 0 0 0 29.13 10.548c8.54.12 17.11-.985 25.57-1.529-.52 19.404-2.27 38.128-12.62 55.442-8.57 14.351-15.28 29.823-22.8 44.847-.67 1.345-1.6 2.707-1.76 4.14-2.31 17.53-15 25.299-30.6 31.689 2.23-3.203 3.84-5.982 5.86-8.416 10.22-12.325 4.23-38.505-8.63-45.985-12.73-7.416-25.36-13.614-40.69-10.05a29.167 29.167 0 0 0-14.83 8.008 33.642 33.642 0 0 0-5.06 6.871c-2.16 3.828-6.28 6.711-9.91 9.482-3.39 2.587-5.41 4.573-3.58 9.53 1 2.715-.87 6.671-1.9 9.923-1.55 4.885-3.8 9.554-5.05 14.495-.32 1.281 1.6 3.78 3.16 4.757 5.23 3.371 10.83 6.158 16.11 9.45a11.898 11.898 0 0 1 4.24 4.741c3.38 6.503 2.28 16.257-3.46 20.613-1.2.913-2.71 1.602-3.54 2.771a22.658 22.658 0 0 1-4.63 4.917c-7.4 5.759-16.68 4.653-25.69 3.1-9.83-1.69-19.18-1.858-28.36 2.25a16.003 16.003 0 0 1-14.18-.208 51.405 51.405 0 0 0-10.02-3.5 73.219 73.219 0 0 0-18.84-1.698c-5.65.137-11.35-1.281-17.01-2.114a2.81 2.81 0 0 1-1.13-.456c-.35-.234-.63-.54-.84-.897-1.73-5.021-4.18-10.003-4.74-15.176-2.48-22.912-3.89-45.888-.8-68.872l.15-1.106a74.912 74.912 0 0 1 1.95-9.61c1.8-6.406 4.19-11.948 11.14-15.416 6.16-3.075 11.39-8.401 16.37-13.39 4.49-4.493 8.89-8.008 15.66-6.927.91.144 1.93-.465 2.93-.737-2.4-7.119-7.68-9.33-15.35-6.535-2.62.953-5 2.507-7.59 3.54-6.05 2.402-12.16-1.361-11.85-8.008v-.153c.24-4.508 1.72-9.073 3.32-13.358 2.83-7.608 6.43-14.935 9.24-22.559 1.27-3.436 1.76-6.872-3.81-8.289-2.64-.673-3.75-7.28-7.99-4.196-2.57 1.882-3.34 6.214-4.95 9.433-.42.647-.88 1.263-1.39 1.842 0-2.282.34-4.052-.08-5.605-.54-1.995-1.69-3.82-2.57-5.718-1.67 1.601-4.22 2.971-4.85 4.925-1.89 5.894-3.45 11.892-5.04 17.882-.53 2.136-1.09 4.245-1.68 6.327-.48 1.754-1.09 3.476-1.64 5.206h-1.97c-.87-7.39-1.74-14.784-2.6-22.184l-3.36-.072c-.39 2.555-1.08 5.11-1.12 7.672-.23 13.113-.36 26.222-.4 39.33 0 2.538-.08 5.061-.2 7.583-1.2 24.827-7.56 48.932-11.7 73.357-3.01 17.787-4.53 35.822-6.8 53.729-.77 5.998-2.5 12.012-2.56 18.051Z" stroke="url(#n)" stroke-width="3" stroke-miterlimit="10"/></g><g opacity=".75" clip-path="url(#o)"><path d="M1460.2 425.78c-.07 6.879 3.68 12.301 9.75 15.68 6.06 3.38 12.47 6.767 18.86 9.762 2.21 1.034 4.94 1.074 7.45 1.338 4.8.496 9.76.064 14.28 1.353 19.38 5.526 38.48 12.309 60.13 10.099-.1.937-.2 1.874-.32 2.795-1.24 10.707-2.73 20.605-3.24 30.56-.7 13.47-.46 26.988-.62 40.49-.21 15.91-.4 31.826-.6 47.746-.04 3.869.07 7.745.09 11.621 0 1.289.5 3.275-.13 3.764-5.23 4.004-2.75 8.585-1.82 13.189.07.321.12.641.17.961.31 2.171-.17 5.094-1.46 6.744-11.05 14.038-14.63 31.08-18.17 47.73a373.31 373.31 0 0 0-7.61 54.793c-1.77 28.975-2.22 58.061-2.4 87.1-.06 10.619 2.69 21.23 3.42 31.889.66 9.424.7 18.88.14 28.31-.56 8.729 1.03 15.592 8.32 21.542 8.63 7.032 15.99 15.633 24.23 23.129 2.5 2.266 6.26 3.139 9.46 4.628 1.31.609 2.97.849 3.93 1.81 20.34 20.398 46.22 32.562 69.98 47.939 8.2 5.301 14.39 13.806 21.22 21.102.8.881.42 3.523-.19 5.037-2.79 6.999-1.35 12.809 5.77 15.309 11.28 3.92 16.32 13.21 20.26 22.76 5.09 12.4 11.72 24.31 13.37 38.07 1.01 8.52 5.79 15.1 13.9 18.77h6.45c13.79-11.8 18-27.16 16.37-44.61-.38-4.5-1.03-8.98-1.94-13.4-2.63-12.24-2.64-23.85 3.06-35.682 6-12.477 4.89-25.45-1.76-37.863-2.98-5.606-6.83-8.714-13.41-6.928-5.6 1.522-11.82 1.898-16.61 4.741-12.94 7.68-24.57 2.603-33.67-5.045-16.21-13.614-31.71-28.414-39.4-49.316-3.7-10.058-11.98-16.625-20.38-22.728-5.91-4.292-12.16-8.128-17.9-12.605-1.99-1.545-4.06-4.38-4.15-6.703-.46-11.124-.87-22.311-.1-33.387.55-7.784 7.49-11.404 14-12.149 13.59-1.561 27.46-2.514 41.09-1.761 3.71.208 7.99 6.887 10.33 11.468 3.94 7.824 6.62 16.305 9.64 24.577 3.37 9.25 9.59 15.833 18.61 19.373 11.99 4.677 23.98 9.385 36.27 13.125 4.44 1.354 9.72-.24 14.61-.16 13.53.225 27.18-.424 40.5 1.474 5.23.745 9.71 7.207 14.39 11.316 1.81 1.601 2.73 4.605 4.72 5.526 5.6 2.626 7.99 7.111 9.79 12.685 2.96 8.969 5.81 18.171 10.33 26.379 4.15 7.552 9.59 14.928 15.98 20.582 9.22 8.097 24.33 2.523 26.01-9.61 2.51-18.179 3.39-36.486-7.51-53.024a220.062 220.062 0 0 1-13.44-22.752 156.992 156.992 0 0 1-9.94-24.241c-4.8-15.769-16.03-22.423-32.18-18.587-8.41 1.986-9.59 8.753-11.19 15.832-10.74-6.599-20.73-13.614-31.53-19.084-7.89-4.004-16.73-6.214-25.36-8.417-3.3-.801-5.37-1.281-5.98-5.021-.88-5.47-2.27-10.859-3.04-14.415 3.28-2.643 6.05-4.004 7.44-6.167 3.78-5.982 6.97-12.332 10.39-18.531.31-.553.55-1.385 1.03-1.602 8.9-3.611 6.71-10.659 5.48-17.442-1.3-7.208-2.2-14.487-3.99-21.551-1.02-4.004-2.62-8.529-5.41-11.404-11.68-12.012-14.8-28.437-22.47-42.444-1.04-1.89-.45-4.645-.74-6.975-.63-5.046-1.37-10.083-2.02-15.128-.34-2.539-1.22-5.214-.8-7.624 1.6-8.585-.84-15.641-6.84-21.775-4.54-4.637-6.19-10.179-6.84-16.818-.62-6.126-3.63-12.165-6.33-17.883-2.18-4.604-5.66-8.577-8.16-13.061-.7-1.25-.3-3.396.14-4.981 1.73-6.095 5.5-12.221 5.23-18.18a95.723 95.723 0 0 1-.1-3.772c-.23-20.453 5.33-39.457 12.79-58.237.7-1.77 1.33-3.571 1.93-5.381 1.74-5.35 3.19-10.812 5.37-15.961 1.86-4.389 5.59-7.944 7.76-12.229 2.18-4.284 4.51-8.761 4.84-13.31.95-13.078 3.11-25.435 12.54-35.429 13.07-13.871 17.29-31.281 19.47-49.484.28-2.306.43-4.917 1.6-6.775 10.77-17.066 15.79-36.094 19.66-55.602 3.4-17.146 8.42-33.772 16.73-49.284 5.3-9.882 6.71-20.197 3.25-31.145-6.3-20.01-12.46-40.071-18.49-60.183-2.39-8.008-9.31-10.411-15.52-13.302-7.28-3.411-15.03-5.726-22.56-8.529h-19.33c-4 1.514-8.09 2.747-11.91 4.581-19.68 9.474-30.14 29.791-25.85 49.876a46.98 46.98 0 0 0 16.22 26.435 46.881 46.881 0 0 0 29.13 10.548c8.54.12 17.11-.985 25.57-1.529-.52 19.404-2.27 38.128-12.62 55.442-8.57 14.351-15.28 29.823-22.8 44.847-.67 1.345-1.6 2.707-1.76 4.14-2.31 17.53-15 25.299-30.6 31.689 2.23-3.203 3.84-5.982 5.86-8.416 10.22-12.325 4.23-38.505-8.63-45.985-12.73-7.416-25.36-13.614-40.69-10.05a29.167 29.167 0 0 0-14.83 8.008 33.642 33.642 0 0 0-5.06 6.871c-2.16 3.828-6.28 6.711-9.91 9.482-3.39 2.587-5.41 4.573-3.58 9.53 1 2.715-.87 6.671-1.9 9.923-1.55 4.885-3.8 9.554-5.05 14.495-.32 1.281 1.6 3.78 3.16 4.757 5.23 3.371 10.83 6.158 16.11 9.45a11.898 11.898 0 0 1 4.24 4.741c3.38 6.503 2.28 16.257-3.46 20.613-1.2.913-2.71 1.602-3.54 2.771a22.658 22.658 0 0 1-4.63 4.917c-7.4 5.759-16.68 4.653-25.69 3.1-9.83-1.69-19.18-1.858-28.36 2.25a16.003 16.003 0 0 1-14.18-.208 51.405 51.405 0 0 0-10.02-3.5 73.219 73.219 0 0 0-18.84-1.698c-5.65.137-11.35-1.281-17.01-2.114a2.81 2.81 0 0 1-1.13-.456c-.35-.234-.63-.54-.84-.897-1.73-5.021-4.18-10.003-4.74-15.176-2.48-22.912-3.89-45.888-.8-68.872l.15-1.106a74.912 74.912 0 0 1 1.95-9.61c1.8-6.406 4.19-11.948 11.14-15.416 6.16-3.075 11.39-8.401 16.37-13.39 4.49-4.493 8.89-8.008 15.66-6.927.91.144 1.93-.465 2.93-.737-2.4-7.119-7.68-9.33-15.35-6.535-2.62.953-5 2.507-7.59 3.54-6.05 2.402-12.16-1.361-11.85-8.008v-.153c.24-4.508 1.72-9.073 3.32-13.358 2.83-7.608 6.43-14.935 9.24-22.559 1.27-3.436 1.76-6.872-3.81-8.289-2.64-.673-3.75-7.28-7.99-4.196-2.57 1.882-3.34 6.214-4.95 9.433-.42.647-.88 1.263-1.39 1.842 0-2.282.34-4.052-.08-5.605-.54-1.995-1.69-3.82-2.57-5.718-1.67 1.601-4.22 2.971-4.85 4.925-1.89 5.894-3.45 11.892-5.04 17.882-.53 2.136-1.09 4.245-1.68 6.327-.48 1.754-1.09 3.476-1.64 5.206h-1.97c-.87-7.39-1.74-14.784-2.6-22.184l-3.36-.072c-.39 2.555-1.08 5.11-1.12 7.672-.23 13.113-.36 26.222-.4 39.33 0 2.538-.08 5.061-.2 7.583-1.2 24.827-7.56 48.932-11.7 73.357-3.01 17.787-4.53 35.822-6.8 53.729-.77 5.998-2.5 12.012-2.56 18.051Z" stroke="url(#p)" stroke-width="3" stroke-miterlimit="10"/></g><g opacity=".5" clip-path="url(#q)"><path d="M1586.2 425.78c-.07 6.879 3.68 12.301 9.75 15.68 6.06 3.38 12.47 6.767 18.86 9.762 2.21 1.034 4.94 1.074 7.45 1.338 4.8.496 9.76.064 14.28 1.353 19.38 5.526 38.48 12.309 60.13 10.099-.1.937-.2 1.874-.32 2.795-1.24 10.707-2.73 20.605-3.24 30.56-.7 13.47-.46 26.988-.62 40.49-.21 15.91-.4 31.826-.6 47.746-.04 3.869.07 7.745.09 11.621 0 1.289.5 3.275-.13 3.764-5.23 4.004-2.75 8.585-1.82 13.189.07.321.12.641.17.961.31 2.171-.17 5.094-1.46 6.744-11.05 14.038-14.63 31.08-18.17 47.73a373.31 373.31 0 0 0-7.61 54.793c-1.77 28.975-2.22 58.061-2.4 87.1-.06 10.619 2.69 21.23 3.42 31.889.66 9.424.7 18.88.14 28.31-.56 8.729 1.03 15.592 8.32 21.542 8.63 7.032 15.99 15.633 24.23 23.129 2.5 2.266 6.26 3.139 9.46 4.628 1.31.609 2.97.849 3.93 1.81 20.34 20.398 46.22 32.562 69.98 47.939 8.2 5.301 14.39 13.806 21.22 21.102.8.881.42 3.523-.19 5.037-2.79 6.999-1.35 12.809 5.77 15.309 11.28 3.92 16.32 13.21 20.26 22.76 5.09 12.4 11.72 24.31 13.37 38.07 1.01 8.52 5.79 15.1 13.9 18.77h6.45c13.79-11.8 18-27.16 16.37-44.61-.38-4.5-1.03-8.98-1.94-13.4-2.63-12.24-2.64-23.85 3.06-35.682 6-12.477 4.89-25.45-1.76-37.863-2.98-5.606-6.83-8.714-13.41-6.928-5.6 1.522-11.82 1.898-16.61 4.741-12.94 7.68-24.57 2.603-33.67-5.045-16.21-13.614-31.71-28.414-39.4-49.316-3.7-10.058-11.98-16.625-20.38-22.728-5.91-4.292-12.16-8.128-17.9-12.605-1.99-1.545-4.06-4.38-4.15-6.703-.46-11.124-.87-22.311-.1-33.387.55-7.784 7.49-11.404 14-12.149 13.59-1.561 27.46-2.514 41.09-1.761 3.71.208 7.99 6.887 10.33 11.468 3.94 7.824 6.62 16.305 9.64 24.577 3.37 9.25 9.59 15.833 18.61 19.373 11.99 4.677 23.98 9.385 36.27 13.125 4.44 1.354 9.72-.24 14.61-.16 13.53.225 27.18-.424 40.5 1.474 5.23.745 9.71 7.207 14.39 11.316 1.81 1.601 2.73 4.605 4.72 5.526 5.6 2.626 7.99 7.111 9.79 12.685 2.96 8.969 5.81 18.171 10.33 26.379 4.15 7.552 9.59 14.928 15.98 20.582 9.22 8.097 24.33 2.523 26.01-9.61 2.51-18.179 3.39-36.486-7.51-53.024a220.062 220.062 0 0 1-13.44-22.752 156.992 156.992 0 0 1-9.94-24.241c-4.8-15.769-16.03-22.423-32.18-18.587-8.41 1.986-9.59 8.753-11.19 15.832-10.74-6.599-20.73-13.614-31.53-19.084-7.89-4.004-16.73-6.214-25.36-8.417-3.3-.801-5.37-1.281-5.98-5.021-.88-5.47-2.27-10.859-3.04-14.415 3.28-2.643 6.05-4.004 7.44-6.167 3.78-5.982 6.97-12.332 10.39-18.531.31-.553.55-1.385 1.03-1.602 8.9-3.611 6.71-10.659 5.48-17.442-1.3-7.208-2.2-14.487-3.99-21.551-1.02-4.004-2.62-8.529-5.41-11.404-11.68-12.012-14.8-28.437-22.47-42.444-1.04-1.89-.45-4.645-.74-6.975-.63-5.046-1.37-10.083-2.02-15.128-.34-2.539-1.22-5.214-.8-7.624 1.6-8.585-.84-15.641-6.84-21.775-4.54-4.637-6.19-10.179-6.84-16.818-.62-6.126-3.63-12.165-6.33-17.883-2.18-4.604-5.66-8.577-8.16-13.061-.7-1.25-.3-3.396.14-4.981 1.73-6.095 5.5-12.221 5.23-18.18a95.723 95.723 0 0 1-.1-3.772c-.23-20.453 5.33-39.457 12.79-58.237.7-1.77 1.33-3.571 1.93-5.381 1.74-5.35 3.19-10.812 5.37-15.961 1.86-4.389 5.59-7.944 7.76-12.229 2.18-4.284 4.51-8.761 4.84-13.31.95-13.078 3.11-25.435 12.54-35.429 13.07-13.871 17.29-31.281 19.47-49.484.28-2.306.43-4.917 1.6-6.775 10.77-17.066 15.79-36.094 19.66-55.602 3.4-17.146 8.42-33.772 16.73-49.284 5.3-9.882 6.71-20.197 3.25-31.145-6.3-20.01-12.46-40.071-18.49-60.183-2.39-8.008-9.31-10.411-15.52-13.302-7.28-3.411-15.03-5.726-22.56-8.529h-19.33c-4 1.514-8.09 2.747-11.91 4.581-19.68 9.474-30.14 29.791-25.85 49.876a46.98 46.98 0 0 0 16.22 26.435 46.881 46.881 0 0 0 29.13 10.548c8.54.12 17.11-.985 25.57-1.529-.52 19.404-2.27 38.128-12.62 55.442-8.57 14.351-15.28 29.823-22.8 44.847-.67 1.345-1.6 2.707-1.76 4.14-2.31 17.53-15 25.299-30.6 31.689 2.23-3.203 3.84-5.982 5.86-8.416 10.22-12.325 4.23-38.505-8.63-45.985-12.73-7.416-25.36-13.614-40.69-10.05a29.167 29.167 0 0 0-14.83 8.008 33.642 33.642 0 0 0-5.06 6.871c-2.16 3.828-6.28 6.711-9.91 9.482-3.39 2.587-5.41 4.573-3.58 9.53 1 2.715-.87 6.671-1.9 9.923-1.55 4.885-3.8 9.554-5.05 14.495-.32 1.281 1.6 3.78 3.16 4.757 5.23 3.371 10.83 6.158 16.11 9.45a11.898 11.898 0 0 1 4.24 4.741c3.38 6.503 2.28 16.257-3.46 20.613-1.2.913-2.71 1.602-3.54 2.771a22.658 22.658 0 0 1-4.63 4.917c-7.4 5.759-16.68 4.653-25.69 3.1-9.83-1.69-19.18-1.858-28.36 2.25a16.003 16.003 0 0 1-14.18-.208 51.405 51.405 0 0 0-10.02-3.5 73.219 73.219 0 0 0-18.84-1.698c-5.65.137-11.35-1.281-17.01-2.114a2.81 2.81 0 0 1-1.13-.456c-.35-.234-.63-.54-.84-.897-1.73-5.021-4.18-10.003-4.74-15.176-2.48-22.912-3.89-45.888-.8-68.872l.15-1.106a74.912 74.912 0 0 1 1.95-9.61c1.8-6.406 4.19-11.948 11.14-15.416 6.16-3.075 11.39-8.401 16.37-13.39 4.49-4.493 8.89-8.008 15.66-6.927.91.144 1.93-.465 2.93-.737-2.4-7.119-7.68-9.33-15.35-6.535-2.62.953-5 2.507-7.59 3.54-6.05 2.402-12.16-1.361-11.85-8.008v-.153c.24-4.508 1.72-9.073 3.32-13.358 2.83-7.608 6.43-14.935 9.24-22.559 1.27-3.436 1.76-6.872-3.81-8.289-2.64-.673-3.75-7.28-7.99-4.196-2.57 1.882-3.34 6.214-4.95 9.433-.42.647-.88 1.263-1.39 1.842 0-2.282.34-4.052-.08-5.605-.54-1.995-1.69-3.82-2.57-5.718-1.67 1.601-4.22 2.971-4.85 4.925-1.89 5.894-3.45 11.892-5.04 17.882-.53 2.136-1.09 4.245-1.68 6.327-.48 1.754-1.09 3.476-1.64 5.206h-1.97c-.87-7.39-1.74-14.784-2.6-22.184l-3.36-.072c-.39 2.555-1.08 5.11-1.12 7.672-.23 13.113-.36 26.222-.4 39.33 0 2.538-.08 5.061-.2 7.583-1.2 24.827-7.56 48.932-11.7 73.357-3.01 17.787-4.53 35.822-6.8 53.729-.77 5.998-2.5 12.012-2.56 18.051Z" stroke="url(#r)" stroke-width="3" stroke-miterlimit="10"/></g><g opacity=".5" clip-path="url(#s)"><path d="M1586.2 425.78c-.07 6.879 3.68 12.301 9.75 15.68 6.06 3.38 12.47 6.767 18.86 9.762 2.21 1.034 4.94 1.074 7.45 1.338 4.8.496 9.76.064 14.28 1.353 19.38 5.526 38.48 12.309 60.13 10.099-.1.937-.2 1.874-.32 2.795-1.24 10.707-2.73 20.605-3.24 30.56-.7 13.47-.46 26.988-.62 40.49-.21 15.91-.4 31.826-.6 47.746-.04 3.869.07 7.745.09 11.621 0 1.289.5 3.275-.13 3.764-5.23 4.004-2.75 8.585-1.82 13.189.07.321.12.641.17.961.31 2.171-.17 5.094-1.46 6.744-11.05 14.038-14.63 31.08-18.17 47.73a373.31 373.31 0 0 0-7.61 54.793c-1.77 28.975-2.22 58.061-2.4 87.1-.06 10.619 2.69 21.23 3.42 31.889.66 9.424.7 18.88.14 28.31-.56 8.729 1.03 15.592 8.32 21.542 8.63 7.032 15.99 15.633 24.23 23.129 2.5 2.266 6.26 3.139 9.46 4.628 1.31.609 2.97.849 3.93 1.81 20.34 20.398 46.22 32.562 69.98 47.939 8.2 5.301 14.39 13.806 21.22 21.102.8.881.42 3.523-.19 5.037-2.79 6.999-1.35 12.809 5.77 15.309 11.28 3.92 16.32 13.21 20.26 22.76 5.09 12.4 11.72 24.31 13.37 38.07 1.01 8.52 5.79 15.1 13.9 18.77h6.45c13.79-11.8 18-27.16 16.37-44.61-.38-4.5-1.03-8.98-1.94-13.4-2.63-12.24-2.64-23.85 3.06-35.682 6-12.477 4.89-25.45-1.76-37.863-2.98-5.606-6.83-8.714-13.41-6.928-5.6 1.522-11.82 1.898-16.61 4.741-12.94 7.68-24.57 2.603-33.67-5.045-16.21-13.614-31.71-28.414-39.4-49.316-3.7-10.058-11.98-16.625-20.38-22.728-5.91-4.292-12.16-8.128-17.9-12.605-1.99-1.545-4.06-4.38-4.15-6.703-.46-11.124-.87-22.311-.1-33.387.55-7.784 7.49-11.404 14-12.149 13.59-1.561 27.46-2.514 41.09-1.761 3.71.208 7.99 6.887 10.33 11.468 3.94 7.824 6.62 16.305 9.64 24.577 3.37 9.25 9.59 15.833 18.61 19.373 11.99 4.677 23.98 9.385 36.27 13.125 4.44 1.354 9.72-.24 14.61-.16 13.53.225 27.18-.424 40.5 1.474 5.23.745 9.71 7.207 14.39 11.316 1.81 1.601 2.73 4.605 4.72 5.526 5.6 2.626 7.99 7.111 9.79 12.685 2.96 8.969 5.81 18.171 10.33 26.379 4.15 7.552 9.59 14.928 15.98 20.582 9.22 8.097 24.33 2.523 26.01-9.61 2.51-18.179 3.39-36.486-7.51-53.024a220.062 220.062 0 0 1-13.44-22.752 156.992 156.992 0 0 1-9.94-24.241c-4.8-15.769-16.03-22.423-32.18-18.587-8.41 1.986-9.59 8.753-11.19 15.832-10.74-6.599-20.73-13.614-31.53-19.084-7.89-4.004-16.73-6.214-25.36-8.417-3.3-.801-5.37-1.281-5.98-5.021-.88-5.47-2.27-10.859-3.04-14.415 3.28-2.643 6.05-4.004 7.44-6.167 3.78-5.982 6.97-12.332 10.39-18.531.31-.553.55-1.385 1.03-1.602 8.9-3.611 6.71-10.659 5.48-17.442-1.3-7.208-2.2-14.487-3.99-21.551-1.02-4.004-2.62-8.529-5.41-11.404-11.68-12.012-14.8-28.437-22.47-42.444-1.04-1.89-.45-4.645-.74-6.975-.63-5.046-1.37-10.083-2.02-15.128-.34-2.539-1.22-5.214-.8-7.624 1.6-8.585-.84-15.641-6.84-21.775-4.54-4.637-6.19-10.179-6.84-16.818-.62-6.126-3.63-12.165-6.33-17.883-2.18-4.604-5.66-8.577-8.16-13.061-.7-1.25-.3-3.396.14-4.981 1.73-6.095 5.5-12.221 5.23-18.18a95.723 95.723 0 0 1-.1-3.772c-.23-20.453 5.33-39.457 12.79-58.237.7-1.77 1.33-3.571 1.93-5.381 1.74-5.35 3.19-10.812 5.37-15.961 1.86-4.389 5.59-7.944 7.76-12.229 2.18-4.284 4.51-8.761 4.84-13.31.95-13.078 3.11-25.435 12.54-35.429 13.07-13.871 17.29-31.281 19.47-49.484.28-2.306.43-4.917 1.6-6.775 10.77-17.066 15.79-36.094 19.66-55.602 3.4-17.146 8.42-33.772 16.73-49.284 5.3-9.882 6.71-20.197 3.25-31.145-6.3-20.01-12.46-40.071-18.49-60.183-2.39-8.008-9.31-10.411-15.52-13.302-7.28-3.411-15.03-5.726-22.56-8.529h-19.33c-4 1.514-8.09 2.747-11.91 4.581-19.68 9.474-30.14 29.791-25.85 49.876a46.98 46.98 0 0 0 16.22 26.435 46.881 46.881 0 0 0 29.13 10.548c8.54.12 17.11-.985 25.57-1.529-.52 19.404-2.27 38.128-12.62 55.442-8.57 14.351-15.28 29.823-22.8 44.847-.67 1.345-1.6 2.707-1.76 4.14-2.31 17.53-15 25.299-30.6 31.689 2.23-3.203 3.84-5.982 5.86-8.416 10.22-12.325 4.23-38.505-8.63-45.985-12.73-7.416-25.36-13.614-40.69-10.05a29.167 29.167 0 0 0-14.83 8.008 33.642 33.642 0 0 0-5.06 6.871c-2.16 3.828-6.28 6.711-9.91 9.482-3.39 2.587-5.41 4.573-3.58 9.53 1 2.715-.87 6.671-1.9 9.923-1.55 4.885-3.8 9.554-5.05 14.495-.32 1.281 1.6 3.78 3.16 4.757 5.23 3.371 10.83 6.158 16.11 9.45a11.898 11.898 0 0 1 4.24 4.741c3.38 6.503 2.28 16.257-3.46 20.613-1.2.913-2.71 1.602-3.54 2.771a22.658 22.658 0 0 1-4.63 4.917c-7.4 5.759-16.68 4.653-25.69 3.1-9.83-1.69-19.18-1.858-28.36 2.25a16.003 16.003 0 0 1-14.18-.208 51.405 51.405 0 0 0-10.02-3.5 73.219 73.219 0 0 0-18.84-1.698c-5.65.137-11.35-1.281-17.01-2.114a2.81 2.81 0 0 1-1.13-.456c-.35-.234-.63-.54-.84-.897-1.73-5.021-4.18-10.003-4.74-15.176-2.48-22.912-3.89-45.888-.8-68.872l.15-1.106a74.912 74.912 0 0 1 1.95-9.61c1.8-6.406 4.19-11.948 11.14-15.416 6.16-3.075 11.39-8.401 16.37-13.39 4.49-4.493 8.89-8.008 15.66-6.927.91.144 1.93-.465 2.93-.737-2.4-7.119-7.68-9.33-15.35-6.535-2.62.953-5 2.507-7.59 3.54-6.05 2.402-12.16-1.361-11.85-8.008v-.153c.24-4.508 1.72-9.073 3.32-13.358 2.83-7.608 6.43-14.935 9.24-22.559 1.27-3.436 1.76-6.872-3.81-8.289-2.64-.673-3.75-7.28-7.99-4.196-2.57 1.882-3.34 6.214-4.95 9.433-.42.647-.88 1.263-1.39 1.842 0-2.282.34-4.052-.08-5.605-.54-1.995-1.69-3.82-2.57-5.718-1.67 1.601-4.22 2.971-4.85 4.925-1.89 5.894-3.45 11.892-5.04 17.882-.53 2.136-1.09 4.245-1.68 6.327-.48 1.754-1.09 3.476-1.64 5.206h-1.97c-.87-7.39-1.74-14.784-2.6-22.184l-3.36-.072c-.39 2.555-1.08 5.11-1.12 7.672-.23 13.113-.36 26.222-.4 39.33 0 2.538-.08 5.061-.2 7.583-1.2 24.827-7.56 48.932-11.7 73.357-3.01 17.787-4.53 35.822-6.8 53.729-.77 5.998-2.5 12.012-2.56 18.051Z" stroke="url(#t)" stroke-width="3" stroke-miterlimit="10"/></g></g><defs><clipPath id="a"><path fill="#fff" d="M0 0h2000v2479H0z"/></clipPath><clipPath id="b"><path fill="#fff" transform="scale(1 -1) rotate(-45 -1967.704 -2990.11)" d="M0 0h161.949v162.865H0z"/></clipPath><clipPath id="c"><path fill="#fff" transform="scale(1 -1) rotate(-45 -1880.204 -3201.353)" d="M0 0h161.949v162.865H0z"/></clipPath><clipPath id="d"><path fill="#fff" transform="rotate(-135 339.663 518.58)" d="M0 0h212.345v213.546H0z"/></clipPath><clipPath id="e"><path fill="#fff" transform="rotate(-135 267.145 343.506)" d="M0 0h212.345v213.546H0z"/></clipPath><clipPath id="f"><path fill="#fff" transform="rotate(-135 194.626 168.43)" d="M0 0h212.345v213.546H0z"/></clipPath><clipPath id="g"><path fill="#fff" transform="scale(1 -1) rotate(45 863.894 168.128)" d="M0 0h39.798v39.798H0z"/></clipPath><clipPath id="h"><path fill="#fff" transform="scale(1 -1) rotate(45 785.228 200.712)" d="M0 0h39.798v39.798H0z"/></clipPath><clipPath id="i"><path fill="#fff" transform="scale(1 -1) rotate(45 706.56 233.297)" d="M0 0h39.798v39.798H0z"/></clipPath><clipPath id="j"><path fill="#fff" transform="translate(864.307 101)" d="M0 0h382.497v389H0z"/></clipPath><clipPath id="k"><path fill="#fff" transform="translate(1074.73 346)" d="M0 0h209.439v213H0z"/></clipPath><clipPath id="l"><path fill="#fff" transform="rotate(-135 1236.04 858.474)" d="M0 0h871.177v876.105H0z"/></clipPath><clipPath id="m"><path fill="#fff" transform="matrix(-1 0 0 1 1748 140)" d="M0 0h415v953H0z"/></clipPath><clipPath id="o"><path fill="#fff" transform="matrix(-1 0 0 1 1874 140)" d="M0 0h415v953H0z"/></clipPath><clipPath id="q"><path fill="#fff" transform="matrix(-1 0 0 1 2000 140)" d="M0 0h415v953H0z"/></clipPath><clipPath id="s"><path fill="#fff" transform="matrix(-1 0 0 1 2000 140)" d="M0 0h415v953H0z"/></clipPath><linearGradient id="n" x1="1748" y1="616.5" x2="1333" y2="616.5" gradientUnits="userSpaceOnUse"><stop stop-color="#E92279"/><stop offset=".29" stop-color="#97164F"/><stop offset=".54" stop-color="#560D2D"/><stop offset=".75" stop-color="#280615"/><stop offset=".91" stop-color="#0B0206"/><stop offset="1"/></linearGradient><linearGradient id="p" x1="1874" y1="616.5" x2="1459" y2="616.5" gradientUnits="userSpaceOnUse"><stop stop-color="#E92279"/><stop offset=".29" stop-color="#97164F"/><stop offset=".54" stop-color="#560D2D"/><stop offset=".75" stop-color="#280615"/><stop offset=".91" stop-color="#0B0206"/><stop offset="1"/></linearGradient><linearGradient id="r" x1="2000" y1="616.5" x2="1585" y2="616.5" gradientUnits="userSpaceOnUse"><stop stop-color="#E92279"/><stop offset=".29" stop-color="#97164F"/><stop offset=".54" stop-color="#560D2D"/><stop offset=".75" stop-color="#280615"/><stop offset=".91" stop-color="#0B0206"/><stop offset="1"/></linearGradient><linearGradient id="t" x1="2000" y1="616.5" x2="1585" y2="616.5" gradientUnits="userSpaceOnUse"><stop stop-color="#E92279"/><stop offset=".29" stop-color="#97164F"/><stop offset=".54" stop-color="#560D2D"/><stop offset=".75" stop-color="#280615"/><stop offset=".91" stop-color="#0B0206"/><stop offset="1"/></linearGradient></defs></svg>